<svg xmlns="http://www.w3.org/2000/svg" xmlns:xlink="http://www.w3.org/1999/xlink" width="142" height="203" fill="none" viewBox="0 0 142 203"><defs><path id="a" fill="#212123" d="M78.552 202.761c-.822 0-1.472-.026-1.813-.042H65.645a1.34 1.34 0 0 1-.11-.005c-.162-.016-4.004-.432-5.48-4.678-.673-1.934-.674-6.803-.675-14.172 0-6.349-.002-14.249-.497-22.133a1.148 1.148 0 1 1 2.294-.144c.499 7.956.5 15.896.5 22.276.002 6.359.003 11.85.548 13.418.92 2.646 3.135 3.085 3.495 3.14h11.047l.057.001c2.993.149 7.73-.123 8.892-1.192 1.636-1.505 1.297-3.509.235-4.827-1.03-1.277-2.975-1.865-2.994-1.872a1.15 1.15 0 0 1-.814-1.255c.027-.207 2.805-20.887 4.706-43.337a1.149 1.149 0 1 1 2.29.194c-1.68 19.841-4.043 38.302-4.6 42.542.903.389 2.262 1.12 3.2 2.286 2.02 2.506 1.823 5.854-.468 7.961-1.724 1.585-6.097 1.838-8.719 1.839Z"/><path id="b" fill="#212123" d="M59.313 21.985c-24.072 0-43.657 19.585-43.657 43.657 0 24.073 19.585 43.657 43.657 43.657 24.073 0 43.657-19.584 43.657-43.657 0-24.072-19.584-43.657-43.657-43.657Zm0 89.502c-25.278 0-45.844-20.566-45.844-45.845s20.566-45.845 45.844-45.845c25.28 0 45.845 20.566 45.845 45.845s-20.566 45.845-45.845 45.845Z"/></defs><path fill="#fff" d="M79.794 162.243H38.572c-6.314 0-11.48-5.166-11.48-11.48v-40.182c0-6.314 5.166-11.48 11.48-11.48h41.222c6.314 0 11.48 5.166 11.48 11.48v40.182c0 6.314-5.166 11.48-11.48 11.48Z"/><path fill="#212123" d="M38.57 100.249c-5.697 0-10.332 4.634-10.332 10.331v40.182c0 5.696 4.635 10.331 10.331 10.331h41.223c5.696 0 10.33-4.635 10.33-10.331V110.58c0-5.697-4.634-10.331-10.33-10.331H38.569Zm41.222 63.142H38.569c-6.964 0-12.629-5.665-12.629-12.629V110.58c0-6.964 5.665-12.629 12.63-12.629h41.222c6.963 0 12.628 5.665 12.628 12.629v40.182c0 6.964-5.665 12.629-12.628 12.629Z"/><path fill="#fff" d="M40.167 101.588 38.73 111.1l-2.754 18.217c-18.368 23.969-24.334-.953-24.334-.953 8.348-11.24 15.42-17.914 20.433-21.783 5.118-3.958 8.092-4.993 8.092-4.993Z"/><path fill="#E2DDFF" d="M81.947 109.713a42.332 42.332 0 0 1-22.783 6.61 42.334 42.334 0 0 1-22.797-6.618c.219-.469.443-.94.67-1.41 0 0-4.203-24.17 22.119-25.185 26.319-1.014 22.116 25.185 22.116 25.185.23.473.454.948.675 1.418Z"/><path fill="#E2DDFF" d="M87.004 105.947a42.676 42.676 0 0 1-8.374 5.667l-3.548-10.841s3.307 1.123 7.532 3.037a85.208 85.208 0 0 1 4.39 2.137Z"/><path fill="#212123" d="M21.78 140.876a8.062 8.062 0 0 1-1.688-.176c-6.958-1.479-9.466-11.638-9.569-12.07a1.148 1.148 0 0 1 .195-.952c16.89-22.743 28.58-27.006 29.07-27.176a1.149 1.149 0 0 1 .758 2.169c-.17.061-11.478 4.302-27.65 25.929.566 1.939 2.9 8.841 7.678 9.853 3.915.827 8.922-2.573 14.488-9.836a1.149 1.149 0 1 1 1.824 1.398c-5.53 7.218-10.603 10.861-15.106 10.861Z"/><path fill="#fff" d="M99.08 140.19s2.832 8.834-6.478 10.73c-1.677.345-3.28.204-4.714-.319-6.179-2.278-9.166-11.804-1.05-21.335a30.001 30.001 0 0 1 1.441-1.577s-.43-.712-1.81-1.718c-.864-.629-2.105-1.376-3.843-2.131l-3.338-10.212-.006-.018-.592-1.809-3.608-11.026s3.307 1.123 7.532 3.037a84.179 84.179 0 0 1 4.41 2.148c.416.219.836.446 1.255.676 0 0 .916.494 2.353 1.384 7.345 4.573 28.217 19.589 8.448 32.17Z"/><path fill="#E2DDFF" d="M82.102 110.052c-5.42 3.263-13.349 5.32-22.186 5.32-9.496 0-17.947-2.376-23.36-6.07.159-.336.316-.669.48-1.005 0 0-3.022-17.374 12.1-23.28 3.34-.693 6.977-1.075 10.78-1.075 3.934 0 7.685.408 11.118 1.15 13.004 5.966 10.238 23.205 10.238 23.205.284.585.563 1.171.83 1.755Z"/><path fill="#212123" d="M90.808 152.25c-3.559 0-6.803-1.931-8.608-5.255-2.415-4.451-2.43-11.798 4.52-19.34-.605-.564-1.753-1.448-3.738-2.394a1.148 1.148 0 1 1 .988-2.075c4.002 1.905 5.173 3.703 5.293 3.902l.463.765-.627.637c-6.81 6.917-6.985 13.528-4.879 17.408 1.674 3.086 4.796 4.576 8.152 3.894 2.444-.498 4.158-1.557 5.094-3.145 1.574-2.67.53-6.079.52-6.113l-.265-.84.742-.477c5.289-3.366 7.894-7.138 7.745-11.211-.387-10.517-18.291-20.265-18.472-20.363-6.346-3.501-12.957-5.759-13.023-5.781a1.15 1.15 0 0 1 .738-2.177c.277.094 6.864 2.343 13.384 5.941.776.416 19.235 10.477 19.669 22.296.175 4.751-2.554 9.049-8.113 12.781.292 1.447.614 4.447-.934 7.092-1.278 2.183-3.508 3.612-6.626 4.248-.68.139-1.357.207-2.023.207Z"/><path fill="#212123" d="M99.25 141.112c-1.67.622-3.438 1.04-5.228 1.009.637-.445 1.53-1.033 2.177-1.469a56.79 56.79 0 0 1 2.142-1.372l.909 1.832Zm6.045-5.673h-.001a.861.861 0 0 1-.86-.864c.005-2.025-1.831-4.196-4.678-5.532-3.422-1.606-8.617-2.036-12.938 1.573a.86.86 0 1 1-1.105-1.323c4.942-4.127 10.873-3.642 14.775-1.811 3.451 1.619 5.677 4.405 5.67 7.098a.862.862 0 0 1-.863.859Z"/><path fill="#212123" d="M87.385 126.882c1.713-.867 3.499-1.636 5.374-2.016-1.559.986-2.892 2.28-4.118 3.629l-1.256-1.613Z"/><path fill="#fff" d="M58.285 161.66c-.178 2.87-.293 5.737-.368 8.532-.017.707-.035 1.411-.049 2.106-.238 12.26.224 22.72-.692 25.362-1.253 3.597-4.504 3.91-4.504 3.91H41.549s-7.684.384-9.727-1.494c-2.042-1.876-1.841-4.547-.35-6.394 1.276-1.586 3.562-2.253 3.562-2.253s-1.546-11.438-3.125-26.666c-.064-.618-.13-1.241-.193-1.87-.483-4.706-.96-9.727-1.393-14.857l27.962 13.624Z"/><path fill="#212123" d="M39.769 202.767c-2.621 0-6.996-.255-8.719-1.84-2.292-2.107-2.489-5.455-.47-7.96.94-1.166 2.299-1.898 3.201-2.286-.556-4.24-2.918-22.701-4.6-42.542a1.149 1.149 0 1 1 2.291-.194c1.901 22.449 4.679 43.13 4.707 43.337a1.148 1.148 0 0 1-.818 1.256c-.016.006-1.962.594-2.99 1.871-1.063 1.318-1.403 3.322.235 4.827 1.16 1.068 5.896 1.34 8.891 1.192l.057-.001h11.05c.333-.05 2.567-.48 3.492-3.14.545-1.568.546-7.06.547-13.42 0-6.379.002-14.319.501-22.274a1.148 1.148 0 0 1 2.294.144c-.495 7.883-.496 15.784-.497 22.131 0 7.37-.002 12.24-.674 14.174-1.477 4.245-5.319 4.662-5.482 4.678a1.344 1.344 0 0 1-.11.005H41.583c-.34.016-.99.042-1.813.042Z"/><path fill="#212123" d="M47.086 180.736c-4.54 0-9.784-.571-14.287-2.56a1.15 1.15 0 1 1 .928-2.102c9.673 4.271 23.69 1.406 23.83 1.377a1.15 1.15 0 0 1 .473 2.249c-.34.071-5.046 1.036-10.944 1.036Zm-12.321 9.577c3.021-.501 5.988-.253 8.948.237.698.128.587 1.165-.12 1.143-2.765-.094-5.672.047-8.289.854-1.569.429-2.135-1.899-.539-2.234Z"/><path fill="#fff" d="M60.027 161.66c.178 2.87.293 5.737.367 8.532.017.707.035 1.411.05 2.106.238 12.26-.225 22.72.692 25.362 1.252 3.597 4.504 3.91 4.504 3.91h11.123s7.684.384 9.726-1.494c2.043-1.876 1.841-4.547.35-6.394-1.275-1.586-3.561-2.253-3.561-2.253s1.545-11.438 3.125-26.666c.063-.618.13-1.241.192-1.87.484-4.706.96-9.727 1.394-14.857L60.027 161.66Z"/><use xlink:href="#a"/><path fill="#212123" d="M71.22 180.73c-5.9 0-10.606-.964-10.946-1.036a1.147 1.147 0 1 1 .472-2.248c.14.029 14.159 2.893 23.831-1.378a1.149 1.149 0 0 1 .928 2.102c-4.503 1.989-9.748 2.56-14.286 2.56Zm11.79 11.811c-2.617-.807-5.522-.948-8.287-.855-.71.025-.822-1.016-.123-1.142 2.96-.491 5.927-.738 8.948-.237 1.592.333 1.035 2.662-.539 2.234Z"/><use xlink:href="#a"/><path fill="#fff" d="M81.277 108.298c7.23 14.957 10.481 28.643 8.275 39.283-.787 3.797-2.098 6.921-3.782 9.488-3.63 5.534-8.993 8.48-14.583 9.981-4.084 1.097-8.29 1.422-12.028 1.422-2.879 0-6.034-.193-9.198-.782a37.853 37.853 0 0 1-2.658-.594c-4.982-1.31-9.795-3.757-13.378-8.146-2.35-2.879-4.17-6.592-5.16-11.369-2.205-10.64 1.046-24.326 8.275-39.283h44.237Z"/><path fill="#fff" d="M90.229 140.196c.026 2.594-.195 5.062-.678 7.386-.109.531-.23 1.049-.362 1.554-.798 3.105-1.97 5.725-3.421 7.934-3.628 5.533-8.99 8.477-14.581 9.979-4.085 1.098-8.29 1.423-12.028 1.423-2.878 0-6.035-.193-9.198-.782a37.662 37.662 0 0 1-2.657-.594c-4.984-1.31-9.796-3.758-13.38-8.147-2.104-2.577-3.781-5.826-4.824-9.905-.12-.477-.233-.962-.336-1.462-.483-2.324-.704-4.792-.678-7.386.08-9.29 3.3-20.209 8.954-31.897 0 0-4.203-24.17 22.119-25.184 26.319-1.014 22.116 25.184 22.116 25.184 5.654 11.688 8.874 22.607 8.954 31.897Z"/><path fill="#C4BBFF" d="M81.274 108.293v-.003a16.204 16.204 0 0 0 0 .003Z"/><path fill="#A383F2" d="M81.278 108.293v-.001.001Zm0-.002c.012-.075.157-1.024.219-2.513a28.842 28.842 0 0 1-.105 1.558 17.03 17.03 0 0 1-.114.955Zm-44.24.002Zm-.1-.762v-.001.001Zm.1.762c.001 0 .001 0 0 0h.001m0 0c-.004-.022-.05-.293-.101-.762v-.001a25.434 25.434 0 0 1-.131-1.933c.05 1.622.224 2.653.231 2.696Z"/><path fill="#E0D6FB" d="m37.042 108.293-.001-.001v.001s0 .001 0 0Zm44.235 0v-.001.001Z"/><path fill="#C4BBFF" d="M88 148.958a61.572 61.572 0 0 1-.385-.056c.254-.568.493-1.157.715-1.768l.042.009a33.651 33.651 0 0 1-.372 1.815Zm-57.712-.078a32.7 32.7 0 0 1-.354-1.732l.043-.008c.213.583.44 1.146.681 1.691l-.37.049Z"/><path fill="#212123" d="M71.335 167.596c-6.42 2.444-14.59 2.562-21.24.98a44.868 44.868 0 0 1-2.939-.934.575.575 0 0 1-.35-.734.581.581 0 0 1 .643-.377c.999.086 1.97.244 2.949.356 4.897.508 9.84.547 14.752.237a81.013 81.013 0 0 0 5.89-.639c.665-.095.927.861.295 1.111Zm13.353-53.117c5.79 11.849 9.897 27.565 3.718 40.001-.933 1.784-2.11 3.456-3.572 4.827-.487.447-1.24-.15-.89-.727 8.602-13.397 4.46-29.629-.317-43.66-.217-.658.73-1.085 1.061-.441Zm-50.01.442c-4.778 14.052-8.92 30.24-.317 43.661.346.555-.394 1.19-.89.726-1.463-1.37-2.639-3.042-3.57-4.826-4.551-9.043-3.428-19.73-.618-29.127a70.714 70.714 0 0 1 4.334-10.875c.316-.618 1.285-.242 1.061.441Z"/><path fill="#fff" d="M75.51 137.13s9.83-.749 13.968 2.23c4.398 3.166-.033 6.829-.033 6.829s-7.917-1.728-14.566-1.482l.63-7.577Z"/><path fill="#212123" d="M76.238 143.528c5.355 0 11.018 1.04 12.855 1.407.521-.558 1.221-1.532 1.185-2.491-.028-.752-.522-1.477-1.466-2.158-2.784-2.004-9.067-2.194-12.235-2.07l-.443 5.312h.104Zm13.514 3.897-.547-.119c-.078-.018-7.853-1.696-14.279-1.456l-1.295.047.82-9.844.976-.074c.418-.032 10.3-.745 14.727 2.442 1.556 1.121 2.371 2.451 2.421 3.953.088 2.613-2.291 4.611-2.393 4.694l-.43.357Z"/><path fill="#fff" d="M42.826 137.125s-9.83-.749-13.969 2.23c-4.397 3.167.033 6.83.033 6.83s7.917-1.729 14.566-1.483l-.63-7.577Z"/><path fill="#212123" d="M40.199 138.186c-3.362 0-8.29.389-10.665 2.1-.945.681-1.44 1.406-1.467 2.158-.036.959.663 1.931 1.186 2.491 1.837-.368 7.5-1.407 12.855-1.407h.103l-.442-5.312c-.464-.018-.994-.03-1.57-.03Zm-11.605 9.239-.431-.357c-.101-.083-2.48-2.081-2.393-4.694.05-1.502.865-2.832 2.421-3.953 4.427-3.188 14.309-2.474 14.727-2.442l.977.074.82 9.844-1.295-.047c-6.433-.242-14.202 1.438-14.28 1.456l-.546.119Z"/><path fill="#fff" d="M76.147 134.193v13.998c0 2.598-2.047 4.723-4.545 4.723H46.779c-2.5 0-4.545-2.125-4.545-4.723v-13.998c0-2.595 2.044-4.721 4.545-4.721h24.823c1.995 0 3.704 1.357 4.31 3.227.15.47.235.972.235 1.494Z"/><path fill="#212123" d="M46.611 130.627a3.23 3.23 0 0 0-3.226 3.227v14.689a3.23 3.23 0 0 0 3.226 3.226h25.162A3.23 3.23 0 0 0 75 148.543v-14.689a3.23 3.23 0 0 0-3.227-3.227H46.611Zm25.162 23.44H46.611a5.53 5.53 0 0 1-5.524-5.524v-14.689a5.53 5.53 0 0 1 5.524-5.524h25.162a5.53 5.53 0 0 1 5.525 5.524v14.689a5.53 5.53 0 0 1-5.525 5.524Z"/><path fill="#6C54FF" d="M71.9 141.199c0 2.248-1.755 4.071-3.92 4.071s-3.92-1.823-3.92-4.071c0-2.248 1.755-4.07 3.92-4.07s3.92 1.822 3.92 4.07Z"/><path fill="#fff" d="M71.904 141.198c0 .277-.026.547-.077.808-.362-1.864-1.946-3.267-3.844-3.267s-3.482 1.403-3.841 3.267a4.139 4.139 0 0 1-.078-.808c0-2.248 1.754-4.073 3.919-4.073s3.921 1.825 3.921 4.073Z"/><path fill="#6630EA" d="M71.9 141.199c0 2.25-1.756 4.071-3.92 4.071-2.163 0-3.92-1.821-3.92-4.071 0-.377.051-.745.143-1.09.461 1.716 1.98 2.978 3.777 2.978 1.798 0 3.317-1.262 3.778-2.978.092.345.142.713.142 1.09Z"/><path fill="#212123" d="M67.98 137.991c-1.686 0-3.057 1.439-3.057 3.208 0 1.77 1.371 3.209 3.058 3.209 1.686 0 3.058-1.439 3.058-3.209 0-1.769-1.372-3.208-3.058-3.208Zm0 8.14c-2.636 0-4.78-2.212-4.78-4.932 0-2.719 2.144-4.932 4.78-4.932 2.637 0 4.782 2.213 4.782 4.932 0 2.72-2.145 4.932-4.781 4.932Zm-12.401 7.936a1.149 1.149 0 0 1-1.148-1.149v-7.164c0-1.413-.646-2.761-1.726-3.606l-.63-.493c-1.634-1.277-2.609-3.302-2.609-5.416v-6.761a1.148 1.148 0 0 1 2.298 0v6.761c0 1.413.645 2.761 1.726 3.606l.63.492c1.634 1.278 2.608 3.302 2.608 5.417v7.164c0 .635-.514 1.149-1.15 1.149Z"/><path fill="#fff" d="M101.014 53.441s9.652 3.659 10.644 5.446c1.839 3.312 1.497 22.783-3.59 27.86-1.991 1.987-16.627 3.844-16.627 3.844l9.573-37.15Z"/><path fill="#E2DDFF" d="M59.177 73.762v.166l-.106-.081.106-.085Zm-.112.085-.105.081v-.166l.105.085Z"/><path fill="#fff" d="M27.187 90.592s-14.635-1.859-16.625-3.847c-1.986-1.98-3.25-6.158-3.94-10.71l-.002-.002c-1.08-7.104-.77-15.126.352-17.146.992-1.787 10.643-5.447 10.643-5.447l4.668 18.118 4.904 19.034Z"/><path fill="#212123" d="M101.769 54.912 92.908 89.3c6.565-.911 13.391-2.324 14.39-3.32 4.691-4.682 5.051-23.591 3.406-26.555-.504-.81-4.819-2.882-8.935-4.512ZM89.982 91.886l10.28-39.895 1.142.433c3.015 1.143 10.142 4.01 11.213 5.938 2.041 3.677 1.781 23.622-3.774 29.165-2.093 2.089-13.741 3.71-17.262 4.156l-1.6.203ZM16.863 54.912c-4.117 1.63-8.432 3.702-8.937 4.516-1.643 2.96-1.283 21.87 3.407 26.55 1 .997 7.825 2.41 14.39 3.322l-8.86-34.388ZM28.65 91.886l-1.6-.203c-3.52-.447-15.168-2.067-17.262-4.156-5.554-5.543-5.814-25.488-3.773-29.165 1.07-1.928 8.197-4.795 11.212-5.938l1.142-.433 10.28 39.895Z"/><path fill="#fff" d="M104.063 65.64c0 24.715-20.036 44.75-44.751 44.75-24.715 0-44.751-20.035-44.751-44.75 0-24.716 20.036-44.752 44.75-44.752 24.716 0 44.752 20.036 44.752 44.751Z"/><use xlink:href="#b"/><use xlink:href="#b"/><use xlink:href="#b"/><path fill="#212123" d="M17.049 76.603c4.974 19.252 22.352 32.695 42.264 32.695 19.91 0 37.289-13.443 42.268-32.692a.914.914 0 0 1 .026-.088 43.84 43.84 0 0 0 1.362-10.876c0-1.631-.092-3.272-.271-4.875-2.455-22.11-21.106-38.78-43.385-38.78-22.273 0-40.922 16.665-43.38 38.766a43.285 43.285 0 0 0-.276 4.89c0 3.691.46 7.348 1.365 10.87.01.03.02.06.027.09Zm42.264 34.884c-20.888 0-39.121-14.089-44.366-34.272a.821.821 0 0 1-.024-.079 45.862 45.862 0 0 1-1.454-11.494c0-1.727.097-3.455.289-5.134 2.582-23.207 22.166-40.71 45.555-40.71 23.396 0 42.982 17.508 45.559 40.726.189 1.683.285 3.406.285 5.118a46.02 46.02 0 0 1-1.472 11.57c-5.248 20.184-23.484 34.275-44.372 34.275Z"/><path fill="#212123" d="M59.313 25.15c13.85 0 26.638 5.644 35.527 15.114-8.028-11.204-21.15-18.277-35.527-18.277-14.37 0-27.488 7.066-35.518 18.267 8.891-9.463 21.677-15.105 35.518-15.105Zm43.192 29.853c-.426 0-.828-.25-1.005-.662-7.066-16.404-23.626-27.004-42.187-27.004-18.55 0-35.105 10.59-42.18 26.98a1.095 1.095 0 0 1-2.06-.72c5.4-19.9 23.592-33.798 44.24-33.798 20.662 0 38.857 13.91 44.248 33.824a1.095 1.095 0 0 1-1.056 1.38Z"/><path fill="#6630EA" d="M104.055 65.646c0 3.874-.491 7.637-1.415 11.22l-.005.004c-7.762 14.998-24.25 27.903-43.33 27.903S23.741 91.868 15.978 76.87l-.004-.005a44.698 44.698 0 0 1-1.42-11.219c0-1.693.095-3.366.283-5.01 6.037-16.704 23.662-28.79 44.468-28.79 20.81 0 38.439 12.094 44.472 28.802.184 1.64.278 3.309.278 4.998Z"/><path fill="#A798FF" d="M59.312 104.773a43.102 43.102 0 0 1-.002 0c17.194 0 32.282-10.478 40.778-23.525l-.004.01c-8.497 13.043-23.582 23.515-40.772 23.515Z"/><path fill="#212123" d="m100.082 81.251.004-.01.03-.046-.004.01-.03.046Zm.032-.04.004-.01a51.031 51.031 0 0 0 2.523-4.331l.004-.004a44.895 44.895 0 0 0 1.415-11.22c0-1.689-.094-3.357-.278-4.998l-.059-.163c.022.055.042.109.061.164.184 1.64.278 3.31.278 4.999 0 3.873-.491 7.636-1.415 11.219l-.005.004a50.7 50.7 0 0 1-2.528 4.34Z"/><path fill="#A798FF" d="M48.156 103.289a.106.106 0 0 0-.016-.005l.016.005Z"/><path fill="#212123" d="M59.31 104.769c-3.837 0-7.57-.522-11.15-1.479l-.01-.002a.084.084 0 0 0-.014-.004c-9.957-2.668-18.712-8.698-25.192-16.192-.439-1.597-1.191-2.661-2.527-3.15a51.885 51.885 0 0 1-4.431-7.075l-.005-.005a44.67 44.67 0 0 1-1.181-6.58c10.033 11.272 24.622 19.472 40.864 19.472 9.923 0 19.232-3.06 27.262-8.013.287.955.958 1.718 1.887 2.003.255.079.515.116.773.116 1.359 0 2.678-1.036 3.159-2.603.365-1.19.157-2.398-.457-3.244 6.32-4.922 11.597-11.027 15.415-17.585.006.018.014.036.021.053l.059.163c.184 1.64.278 3.309.278 4.998a44.91 44.91 0 0 1-1.415 11.22l-.005.003a51.019 51.019 0 0 1-2.522 4.332l-.031.046c-8.496 13.048-23.583 23.526-40.777 23.526Z" opacity=".35"/><path fill="#fff" d="M91.798 72.645a4.06 4.06 0 0 1-.65-.051c-3.04-.488-4.959-4.283-4.286-8.478.624-3.895 3.263-6.764 6.07-6.764.217 0 .434.017.652.052 3.04.487 4.958 4.283 4.285 8.477-.625 3.895-3.263 6.765-6.07 6.764Zm-8.872 9.097a3.902 3.902 0 0 1 .026-2.26c.48-1.567 1.8-2.604 3.158-2.604.259 0 .518.038.774.116.578.177 1.057.54 1.405 1.02a59.99 59.99 0 0 1-5.363 3.728Z" opacity=".7"/><path fill="#fff" d="M85.585 83.867c-.258 0-.518-.037-.773-.116-.93-.285-1.6-1.048-1.887-2.003a59.971 59.971 0 0 0 5.362-3.728c.614.846.822 2.054.456 3.244-.48 1.567-1.8 2.603-3.158 2.603Zm-60.375-5.29s-7.4-21.997 4.353-31.06c8.923-6.882 20.966-8.72 26.083-8.72 1.622 0 2.547.186 2.456.453 0 0-18.91 4.985-26.04 20.158-5.5 11.701-6.852 19.17-6.852 19.17Z" opacity=".7"/><path fill="#fff" d="M5.947 115.93s-3.795 19.416 6.005 25.206c7.537 4.453 18.594-.696 16.241-12.1-1.382-6.699-5.395-8.78-4.905-20.183a164.447 164.447 0 0 1-.636-8.77c-.43-9.186.203-14.418-3.011-15.177-2.461-.582-5.2 2.542-4.4 9.749 0 0-21.612 3.989-9.294 21.275Z"/><path fill="#212123" d="M19.062 85.988c-.374 0-.74.157-1.094.47-.528.469-2.207 2.435-1.58 8.072a1.15 1.15 0 0 1-.934 1.257c-.092.017-9.249 1.785-11.598 7.603-1.303 3.229-.283 7.224 3.031 11.876.183.256.253.577.192.887-.036.186-3.523 18.688 5.462 23.995 3.45 2.038 7.897 1.886 11.067-.378 3.119-2.228 4.381-6.055 3.464-10.499-.459-2.227-1.227-3.919-2.041-5.71-1.576-3.469-3.205-7.056-2.89-14.672a165.42 165.42 0 0 1-.632-8.75c-.084-1.8-.129-3.465-.168-4.935-.158-5.923-.306-8.788-1.96-9.178a1.381 1.381 0 0 0-.32-.038Zm-1.245 57.883a12.69 12.69 0 0 1-6.445-1.744c-9.6-5.671-7.182-22.741-6.637-25.927-3.575-5.173-4.587-9.773-3.006-13.678 2.33-5.759 9.57-8.082 12.282-8.765-.285-4.128.584-7.382 2.434-9.02 1.016-.899 2.246-1.235 3.464-.947 3.45.814 3.555 4.78 3.73 11.353.038 1.458.082 3.111.165 4.888.143 3.042.355 5.972.632 8.708.005.055.007.11.005.166-.307 7.124 1.212 10.47 2.682 13.706.83 1.827 1.689 3.717 2.2 6.195 1.11 5.376-.487 10.053-4.38 12.834-2.074 1.482-4.59 2.231-7.126 2.231Z"/><path fill="#fff" d="M17.44 106.263c-3.97 3.379-12.919 5.432-14.908 2.825-1.886-2.471-1.67-5.996-.383-8.444 1.894-3.602 11.109-6.978 13.09-5.984 2.832 1.423 4.852 9.348 2.201 11.603Z"/><path fill="#E0D6FB" d="M6.116 110.263c-.791 0-1.509-.084-2.11-.264.6.18 1.317.264 2.11.264 3.554 0 8.606-1.692 11.325-4.006 2.067-1.759 1.295-6.963-.488-9.846 1.784 2.883 2.557 8.089.488 9.847-2.717 2.313-7.77 4.005-11.325 4.005Z"/><path fill="#212123" d="M4.005 110.005Zm-1.416-.846ZM14.27 95.626c-.869 0-2.748.34-5.223 1.386-2.924 1.237-5.176 2.832-5.876 4.165-1.026 1.952-1.377 5.042.28 7.212.26.341.91.59 1.782.684 3.318.358 8.782-1.402 11.467-3.687.689-.586.98-2.086.76-3.915-.338-2.81-1.686-5.26-2.732-5.786-.084-.037-.239-.059-.458-.059Zm-8.124 15.791c-.4 0-.788-.02-1.158-.059-1.563-.168-2.696-.698-3.365-1.575-2.279-2.987-1.887-7.011-.486-9.676 2.08-3.958 11.871-7.856 14.622-6.476 2.246 1.128 3.64 4.712 3.983 7.566.325 2.701-.226 4.81-1.552 5.939-2.893 2.461-8.134 4.281-12.044 4.281Z"/><path fill="#fff" d="M21.619 112.354c3.065-2.235 5.1-5.666 5.349-8.007.259-2.423-.393-5.22-2.187-6.167-2.284-1.206-9.684.827-8.82 4.004.685 2.524 4.62 1.967 4.62 1.967s-5.428 1.833-5.108 5.899"/><path fill="#212123" d="M21.365 112.002c2.208-1.899 4.14-4.449 4.73-7.32.201-1.5.02-3.161-.632-4.511-.56-1.104-1.3-1.515-2.59-1.484-1.824.06-3.844.596-5.292 1.718-.844.657-1.059 1.498-.33 2.204.506.48 1.536.662 2.309.664.289.004.64-.005.913-.038a.92.92 0 0 1 .403 1.783c-.56.195-1.188.499-1.715.807-1.649.909-2.859 2.39-3.27 4.226a.446.446 0 0 1-.848.029c-.27-.748-.234-1.624.043-2.401.906-2.233 3.064-3.552 5.202-4.402l.423 1.78a8.02 8.02 0 0 1-2.356-.04c-1.793-.224-3.628-1.664-3.343-3.728.287-1.775 1.995-2.792 3.47-3.419 2.004-.768 4.831-1.42 6.84-.393 2.178 1.328 2.68 4.047 2.526 6.371-.142 2.253-1.367 4.329-2.75 6.002a14.797 14.797 0 0 1-3.225 2.849.432.432 0 0 1-.508-.697Z"/><path fill="#fff" d="M21.66 102.449c-1.073.583-1.63 1.964-.07 2.534l.07-2.534Z"/><path fill="#212123" d="M21.658 102.449c-.43.569-1.01 1.231-.614 1.932.118.203.32.387.542.602-1.813-.041-1.498-2.327.072-2.534Z"/><path fill="#E2DDFF" d="M109.127 36.908a409.88 409.88 0 0 1-.196 4.129c-.024.47.168.956.537 1.33.756.763 2.249 1.97 4.416 2.35.608.108 1.195-.072 1.558-.481l2.769-3.12c.71-.798.31-2.112-.803-2.64l-5.844-2.763c-1.15-.543-2.39.065-2.437 1.195Z"/><path fill="#212123" d="M109.927 36.934a444.247 444.247 0 0 1-.196 4.137c-.013.25.099.516.308.727.638.645 2.003 1.778 3.987 2.127.332.062.648-.028.824-.226l2.769-3.119a.65.65 0 0 0 .136-.576c-.069-.34-.325-.643-.685-.813l-5.844-2.764c-.351-.167-.726-.169-.999-.004a.602.602 0 0 0-.3.51Zm3.881 8.57a.404.404 0 0 1-.059-.01c-2.417-.424-4.072-1.795-4.844-2.574-.523-.53-.803-1.234-.766-1.932.048-.938.136-2.682.195-4.12a2.188 2.188 0 0 1 1.069-1.809c.731-.442 1.668-.47 2.505-.073l5.844 2.763c.811.384 1.396 1.108 1.565 1.936a2.233 2.233 0 0 1-.506 1.953l-2.769 3.12c-.538.604-1.369.88-2.234.747Z"/><path fill="#E2DDFF" d="M109.204 27.25a973.208 973.208 0 0 1-1.063 8.29 3.309 3.309 0 0 0 .783 2.619c1.286 1.465 3.879 3.755 7.873 4.334a3.355 3.355 0 0 0 3-1.1l5.712-6.486c1.463-1.661.934-4.26-1.061-5.22l-10.48-5.04c-2.06-.99-4.486.334-4.764 2.604Z"/><path fill="#C4BBFF" d="M116.838 41.528a11.775 11.775 0 0 1-4.749-1.864l-.197-.192c.688.242 1.432.435 2.235.56.041.006.083.011.124.018a3.354 3.354 0 0 0 2.999-1.099l4.103-4.66c1.133.13 2.274.134 3.403.013l-5.682 6.454a2.39 2.39 0 0 1-2.236.77Z"/><path fill="#F1EEFF" d="M111.892 39.467a5.394 5.394 0 0 1-.165-.059 12.601 12.601 0 0 1-2.09-1.89 2.352 2.352 0 0 1-.553-1.862 959.395 959.395 0 0 0 1.067-8.328c.375.58.792 1.14 1.251 1.673-.329 2.634-.708 5.526-.926 7.176a3.312 3.312 0 0 0 .783 2.619c.184.21.395.435.633.671Zm.196.195a11.61 11.61 0 0 1-.361-.251l.164.059.197.192Z"/><path fill="#212123" d="M112.873 25.286a2.363 2.363 0 0 0-1.502.268 2.358 2.358 0 0 0-1.222 1.8c-.353 2.891-.818 6.44-1.063 8.299-.09.68.111 1.36.553 1.862 1.113 1.268 3.559 3.47 7.292 4.018a2.389 2.389 0 0 0 2.144-.783l5.712-6.488a2.37 2.37 0 0 0 .547-2.05 2.366 2.366 0 0 0-1.304-1.676l-10.48-5.038a2.396 2.396 0 0 0-.677-.212Zm3.651 18.121c-4.284-.663-7.05-3.18-8.323-4.63a4.267 4.267 0 0 1-1.012-3.375 972.86 972.86 0 0 0 1.062-8.28 4.242 4.242 0 0 1 2.202-3.246 4.252 4.252 0 0 1 3.927-.103l10.48 5.04a4.267 4.267 0 0 1 2.349 3.018 4.267 4.267 0 0 1-.986 3.696l-5.712 6.486a4.295 4.295 0 0 1-3.855 1.414l-.132-.02Z"/><path fill="#212123" d="M120.221 40.9c-.003.057-.198.093-.553.11a12.38 12.38 0 0 1-.649.009c-.253 0-.537-.05-.853-.084-1.262-.153-2.989-.635-4.708-1.551a16.81 16.81 0 0 1-3.99-2.922c-.896-.896-1.323-1.568-1.236-1.64.165-.158 2.302 2.092 5.612 3.83a19.654 19.654 0 0 0 4.432 1.709c.297.068.563.158.804.199.24.045.446.088.615.129.339.081.529.154.526.212Zm1.933-2.192c-.006.057-.233.077-.643.064-.408-.018-1.006-.036-1.723-.195-1.444-.251-3.416-.883-5.35-2.04-.98-.556-1.828-1.217-2.579-1.834-.73-.642-1.357-1.255-1.829-1.817-.963-1.11-1.379-1.935-1.286-1.994.098-.066.667.615 1.71 1.59.511.496 1.158 1.044 1.888 1.632.749.561 1.576 1.178 2.516 1.71a21.49 21.49 0 0 0 5.066 2.184c.677.226 1.245.33 1.633.445.389.11.603.199.597.255Z"/><path fill="#FDF09F" d="M135.18 28.583c-5.321 6.658-15.031 7.743-21.691 2.422-6.659-5.32-7.743-15.032-2.422-21.691 5.321-6.659 15.032-7.743 21.691-2.423 6.659 5.321 7.744 15.033 2.422 21.692Z"/><path fill="#FFAD77" d="M119.798 31.814a15.359 15.359 0 0 1-7.258-3.195 15.357 15.357 0 0 1-4.177-5.166 15.484 15.484 0 0 1 .233-9.712l.102-.176a15.45 15.45 0 0 0 1.206 3.353 15.335 15.335 0 0 0 5.124 7.567 15.36 15.36 0 0 0 7.258 3.195c5.172.8 10.612-1.055 14.196-5.33a15.406 15.406 0 0 1-2.25 3.847c-3.58 4.48-9.146 6.436-14.434 5.617Zm-11.31-7.967c-.044-.134-.089-.269-.13-.404l.005.01c.04.131.082.264.125.394Zm27.994-1.496.007-.014c.076-.092.155-.18.23-.275-.078.098-.157.193-.237.289Z"/><path fill="#D1C0F9" d="M110.828 9.629Zm2.179-2.332.022-.019-.022.02Zm.023-.02.022-.019-.022.019Zm.028-.024.019-.016-.019.016Zm.024-.021.017-.014-.017.014Zm.026-.022.013-.01-.013.01Zm.03-.025.008-.007-.008.007Zm.021-.018.002-.002-.002.002Zm.032-.027.001-.001-.001.001Zm19.839-.022-.014-.011.014.01Zm-.02-.017-.25-.204a15.563 15.563 0 0 0 .25.204Z"/><path fill="#fff" d="M136.555 26.55c1.996-5.568.643-11.953-3.73-16.228a13.282 13.282 0 0 1-1.13-.128c-1.659-.257-3.539-.833-5.439-1.723-1.599-.75-3.019-1.633-4.179-2.556-4.545-.011-9.05 1.97-12.107 5.795a15.46 15.46 0 0 0-1.274 1.857 1.649 1.649 0 0 0-.014-.06 19.096 19.096 0 0 1-.087.236l-.003.005a15.408 15.408 0 0 1 2.472-4.428 15.526 15.526 0 0 1 1.935-2.02l.003-.003.022-.019.001-.001.021-.018.007-.006.018-.016c.002 0 .004-.003.006-.005l.017-.014.009-.008.013-.01.017-.015a.026.026 0 0 1 .008-.007.134.134 0 0 1 .013-.011l.002-.002.029-.025.002-.001a15.385 15.385 0 0 1 6.782-3.293 15.506 15.506 0 0 1 5.529-.144 15.334 15.334 0 0 1 7.257 3.195l.25.204.006.006.013.01a15.469 15.469 0 0 1 2.691 2.913c3.419 4.822 3.808 11.288.84 16.52Z"/><path fill="#F1EEFF" d="M108.596 13.743a15.972 15.972 0 0 1 .087-.236l.014.06-.101.176Z"/><path fill="#212123" d="M117.103 22.822a.544.544 0 0 0-.1-.006c-.423.008-.992.413-1.213 1.076-.255.763.018 1.635.755 2.486.809-1.218 1.279-2.367 1.002-3.104-.126-.335-.299-.43-.444-.452Zm7.745 3.238a.95.95 0 0 0-.419.048c-.822.254-1.917 1.351-2.572 3.002 1.225.111 2.279-.148 2.965-.662.454-.342.919-.942.551-1.86-.129-.322-.292-.492-.525-.528Zm-4.24 8.937a.8.8 0 0 1-.656-.615 10.254 10.254 0 0 1-.094-4.062 10.583 10.583 0 0 1-3.071-1.588 26.7 26.7 0 0 1-2.774 2.884.798.798 0 0 1-1.055-1.195 23.921 23.921 0 0 0 2.619-2.735c-1.81-1.887-1.535-3.592-1.299-4.299.417-1.253 1.526-2.143 2.696-2.165.938-.017 1.709.54 2.066 1.492.53 1.412-.221 3.164-1.296 4.743a9.072 9.072 0 0 0 2.527 1.319c.792-2.201 2.287-3.759 3.687-4.191 1.279-.396 2.388.146 2.895 1.41.563 1.405.162 2.798-1.073 3.726-1.038.782-2.6 1.165-4.361.945a8.617 8.617 0 0 0 .09 3.371.797.797 0 0 1-.901.96Z"/><path fill="#212123" d="M125.363 4.647a14.552 14.552 0 0 0-3.845-.078 14.377 14.377 0 0 0-9.702 5.35 14.373 14.373 0 0 0-3.078 10.643 14.379 14.379 0 0 0 5.35 9.703 14.38 14.38 0 0 0 10.644 3.078 14.377 14.377 0 0 0 9.702-5.35 14.382 14.382 0 0 0 3.078-10.644 14.382 14.382 0 0 0-5.35-9.703 14.398 14.398 0 0 0-6.799-3Zm-4.773 30.508a16.3 16.3 0 0 1-7.697-3.395 16.282 16.282 0 0 1-6.057-10.986 16.28 16.28 0 0 1 3.485-12.05 16.28 16.28 0 0 1 10.985-6.057 16.28 16.28 0 0 1 12.05 3.484 16.28 16.28 0 0 1 6.058 10.986 16.285 16.285 0 0 1-3.485 12.05 16.28 16.28 0 0 1-10.985 6.057 16.476 16.476 0 0 1-4.354-.089Z"/></svg>