<svg width="49" height="48" viewBox="0 0 49 48" fill="none" xmlns="http://www.w3.org/2000/svg">
    <path d="M25.4882 41.3989C25.4882 41.7136 25.2448 41.9688 24.9437 41.9688C24.6426 41.9688 24.3984 41.7136 24.3984 41.3989C24.3984 41.0843 24.6426 40.83 24.9437 40.83C25.2448 40.83 25.4882 41.0843 25.4882 41.3989Z"
          fill="#212123"/>
    <path d="M24.9471 41.8174C24.7261 41.8174 24.5467 41.6299 24.5467 41.3998C24.5467 41.1697 24.7261 40.9823 24.9471 40.9823C25.1673 40.9823 25.3467 41.1697 25.3467 41.3998C25.3467 41.6299 25.1673 41.8174 24.9471 41.8174ZM24.9471 39.8426C24.1256 39.8426 23.457 40.5421 23.457 41.3998C23.457 42.2583 24.1256 42.957 24.9471 42.957C25.7686 42.957 26.4364 42.2583 26.4364 41.3998C26.4364 40.5421 25.7686 39.8426 24.9471 39.8426Z"
          fill="#212123"/>
    <path d="M35.5343 41.8462C35.5343 43.272 34.4237 44.4317 33.0593 44.4317H16.8294C15.465 44.4317 14.3545 43.272 14.3545 41.8462V6.15374C14.3545 4.72708 15.465 3.56652 16.8294 3.56652H33.0593C34.4237 3.56652 35.5343 4.72708 35.5343 6.15374V41.8462ZM33.0593 1.5918H16.8294C14.4233 1.5918 12.4648 3.63847 12.4648 6.15374V41.8462C12.4648 44.3606 14.4233 46.4065 16.8294 46.4065H33.0593C35.4662 46.4065 37.4239 44.3606 37.4239 41.8462V6.15374C37.4239 3.63847 35.4662 1.5918 33.0593 1.5918Z"
          fill="#212123"/>
    <path d="M24.9438 23.7031C22.7956 23.7031 21.0469 21.8765 21.0469 19.6307C21.0469 17.3857 22.7956 15.5591 24.9438 15.5591C27.0929 15.5591 28.8408 17.3857 28.8408 19.6307C28.8408 21.8765 27.0929 23.7031 24.9438 23.7031Z"
          fill="#212123"/>
    <path d="M19.1582 19.6316C19.1582 16.2979 21.7541 13.5852 24.9448 13.5852C28.1355 13.5852 30.7314 16.2979 30.7314 19.6316C30.7314 22.966 28.1355 25.6788 24.9448 25.6788C21.7541 25.6788 19.1582 22.966 19.1582 19.6316ZM31.2678 29.9563H18.6218C18.0998 29.9563 17.6762 29.5144 17.6762 28.9689C17.6762 28.4233 18.0998 27.9815 18.6218 27.9815H31.2678C31.7891 27.9815 32.2126 28.4233 32.2126 28.9689C32.2126 29.5144 31.7891 29.9563 31.2678 29.9563ZM19.6803 32.9761C19.6803 32.4305 20.1039 31.9887 20.6251 31.9887H29.2637C29.785 31.9887 30.2085 32.4305 30.2085 32.9761C30.2085 33.5216 29.785 33.9634 29.2637 33.9634H20.6251C20.1039 33.9634 19.6803 33.5216 19.6803 32.9761ZM13.4102 10.27V37.8359H36.4795V10.27H13.4102Z"
          fill="#212123"/>
    <path d="M35.8155 37.145H14.0688V10.9616H35.8155V37.145ZM36.4768 9.57931H13.4075C13.0424 9.57931 12.7461 9.88807 12.7461 10.2705V37.8362C12.7461 38.2186 13.0424 38.5273 13.4075 38.5273H36.4768C36.8419 38.5273 37.1382 38.2186 37.1382 37.8362V10.2705C37.1382 9.88807 36.8419 9.57931 36.4768 9.57931Z"
          fill="#212123"/>
    <path d="M27.2836 7.33203H22.273C21.7509 7.33203 21.3281 6.89019 21.3281 6.34459C21.3281 5.79983 21.7509 5.35717 22.273 5.35717H27.2836C27.8049 5.35717 28.2285 5.79983 28.2285 6.34459C28.2285 6.89019 27.8049 7.33203 27.2836 7.33203Z"
          fill="#212123"/>
</svg>
