<svg xmlns="http://www.w3.org/2000/svg" width="1440" height="733" fill="none" viewBox="0 0 1440 733"><g clip-path="url(#clip0_9174_236999)"><g filter="url(#filter0_d_9174_236999)"><path fill="url(#paint0_linear_9174_236999)" d="M1269.28 219.361c306 27.831 204.47-242.507 531.28-226.888 326.8 15.619-127.26 522.252-127.26 522.252L-626.912 691.644l-104.417-514.362s293.851-257.521 450.11-65.032c156.26 192.49 364.045-6.603 546.87 349.94 111.299 222.579 166.877-228.6 479.121-121.161C1057.02 448.468 963.28 191.531 1269.28 219.361Z"/></g><path fill="#fff" d="M109.087 400.748c-.311-.245-1.084.181-1.984 1.018a1.427 1.427 0 0 1-1.671.2c-1.072-.6-1.924-.831-2.168-.519-.245.312.18 1.087 1.016 1.988.422.454.503 1.133.2 1.675-.601 1.074-.832 1.928-.521 2.174.313.247 1.088-.18 1.986-1.018a1.429 1.429 0 0 1 1.673-.202c1.073.602 1.925.832 2.169.521.245-.313-.18-1.087-1.017-1.989a1.435 1.435 0 0 1-.199-1.677c.6-1.071.829-1.924.516-2.171Zm89.61 60.987c-.278-.34-1.217-.065-2.391.626a1.585 1.585 0 0 1-1.858-.183c-1.015-.908-1.883-1.363-2.223-1.083-.339.279-.064 1.22.626 2.395a1.594 1.594 0 0 1-.184 1.862c-.907 1.019-1.361 1.889-1.083 2.229.28.342 1.221.066 2.393-.626a1.586 1.586 0 0 1 1.861.183c1.016.909 1.883 1.363 2.222 1.084.34-.279.065-1.22-.626-2.397a1.593 1.593 0 0 1 .185-1.863c.906-1.016 1.358-1.885 1.078-2.227Zm-25.08-24.991a1.183 1.183 0 0 0-1.666-.165 1.188 1.188 0 0 0-.165 1.669 1.181 1.181 0 0 0 1.666.165 1.187 1.187 0 0 0 .165-1.669Zm-59.777-57.749a1.107 1.107 0 0 0-.765 2.077 1.107 1.107 0 0 0 .765-2.077Zm-9.054-27.215a1.407 1.407 0 0 0-.972 2.639 1.407 1.407 0 0 0 .972-2.639ZM57.868 540.975a1.62 1.62 0 0 0-2.284-.226 1.628 1.628 0 0 0-.225 2.288 1.62 1.62 0 0 0 2.284.226c.693-.57.794-1.594.225-2.288Zm119.283-51.579a1.181 1.181 0 0 0-1.666-.165 1.187 1.187 0 0 0-.164 1.669c.414.506 1.16.58 1.666.165a1.187 1.187 0 0 0 .164-1.669Zm-103.45 80.981a1.621 1.621 0 0 0-2.283-.226 1.628 1.628 0 0 0-.226 2.288 1.62 1.62 0 0 0 2.284.226c.692-.57.793-1.594.225-2.288Zm72.023-148.379a.61.61 0 1 0-.085.858.61.61 0 0 0 .085-.858Zm-69.939-73.322a.72.72 0 0 0-.927.427.722.722 0 1 0 .927-.427Zm20.018 209.199a.833.833 0 0 0-1.174-.116.834.834 0 1 0 1.058 1.292.836.836 0 0 0 .116-1.176ZM32.637 532.49a.836.836 0 1 0-.116 1.176.837.837 0 0 0 .116-1.176Zm17.403-31.427a1.386 1.386 0 0 0-1.962.007 1.392 1.392 0 0 0 .008 1.966 1.386 1.386 0 0 0 1.962-.007 1.392 1.392 0 0 0-.007-1.966Z"/><path fill="url(#paint1_linear_9174_236999)" d="M904.836 519.816c-36.508-5.555-30.428-20.371-81.512-47.933s-47.132-71.28-21.188-134.82c22.077-54.069 42.121-103.183 97.421-94.978 9.687 1.437 55.128 23.045 64.599 26.911 63.534 25.941 107.914 97.253 81.974 160.787-22.08 54.069-76.609 99.877-141.294 90.033Z" opacity=".7"/><path fill="#fff" d="M865.124 427.993a3.019 3.019 0 0 0 2.546 3.427 3.011 3.011 0 0 0 3.42-2.541 3.012 3.012 0 0 0-2.535-3.424 3.02 3.02 0 0 0-3.431 2.538Zm-58.852 26.046a3.013 3.013 0 1 0 5.962.885 3.012 3.012 0 0 0-2.538-3.423 3.013 3.013 0 0 0-3.424 2.538Z"/><path fill="#C2ACF7" d="M923.044 444.666a3.014 3.014 0 1 0 5.963.884 3.015 3.015 0 0 0-5.963-.884Z"/><path fill="#fff" d="M977.632 271.86a3.012 3.012 0 0 0 2.541 3.426 3.012 3.012 0 0 0 3.421-2.542 3.012 3.012 0 1 0-5.962-.884Z"/><path fill="#C2ACF7" d="M836.493 385.22a3.015 3.015 0 0 0 2.546 3.425 3.012 3.012 0 0 0 3.42-2.54 3.016 3.016 0 0 0-5.966-.885Zm-19.369-35.859a3.014 3.014 0 0 0 2.542 3.428 3.012 3.012 0 0 0 3.423-2.543 3.015 3.015 0 0 0-5.965-.885Z"/><path fill="#fff" d="M830.76 261.958a3.013 3.013 0 1 0 5.96.884 3.012 3.012 0 1 0-5.96-.884Zm-9.147 57.536a2.008 2.008 0 0 0 1.694 2.284 2.007 2.007 0 0 0 2.283-1.694 2.01 2.01 0 1 0-3.977-.59Z"/><path fill="#C2ACF7" d="M849.356 459.137a1.176 1.176 0 1 0 2.328.345 1.177 1.177 0 1 0-2.328-.345Zm-5.576-52.296a1.177 1.177 0 1 0 2.33.344 1.177 1.177 0 0 0-2.33-.344Z"/><path fill="#fff" d="M826.257 455.344a1.177 1.177 0 1 0 2.329.345 1.177 1.177 0 1 0-2.329-.345Zm148.768-208.621a2.008 2.008 0 1 0 3.972.589 2.009 2.009 0 1 0-3.972-.589Z"/><path fill="#C2ACF7" d="M885.704 461.358a2.012 2.012 0 0 0 1.693 2.283c1.1.163 2.12-.594 2.283-1.693a2.008 2.008 0 0 0-1.693-2.283 2.013 2.013 0 0 0-2.283 1.693Zm-55.208-35.891a2.009 2.009 0 1 0 3.973.59 2.008 2.008 0 1 0-3.973-.59Zm164.925-74.36a2.01 2.01 0 1 0 3.976.59 2.01 2.01 0 0 0-3.976-.59Z"/><path fill="#C567CD" d="M845.341 438.265a2.278 2.278 0 0 0 4.505.669 2.28 2.28 0 0 0-1.919-2.586 2.279 2.279 0 0 0-2.586 1.917Z"/><path fill="#fff" d="M1029.34 331.662c-.67 4.539 2.46 8.766 7 9.439 4.53.673 8.77-2.461 9.44-7.001.67-4.539-2.47-8.766-7-9.439-4.54-.673-8.76 2.462-9.44 7.001Zm-7.16 142.046a6.045 6.045 0 0 0 5.1 6.865 6.045 6.045 0 1 0-5.1-6.865Zm21.54-174.648c1.96.063 3.93-1.221 4.4-3.263.37-1.586 2.5-8.502 2.5-8.502s-.14 7.231-.09 8.86c.08 2.415 1.3 3.823 3.26 4.398 1.57.455 8.51 2.497 8.51 2.495 0 0-7.24-.054-8.86-.079-2.6-.042-3.87 1.435-4.4 3.261-.45 1.564-2.49 8.502-2.49 8.502s0-7.235.07-8.862c.1-2.18-1.25-3.871-3.26-4.399-1.57-.416-8.5-2.495-8.5-2.495 0 .003 7.23.031 8.86.084Z"/><path fill="#364659" d="M922.611 357.147a3.369 3.369 0 1 0 6.664.988 3.368 3.368 0 1 0-6.664-.988Z"/><path fill="#fff" d="M867.67 431.42a3.019 3.019 0 0 1-2.546-3.427 3.02 3.02 0 0 1 3.431-2.538 3.012 3.012 0 0 1 2.535 3.424 3.011 3.011 0 0 1-3.42 2.541Z"/><path fill="#C567CD" d="M925.586 448.092a3.015 3.015 0 1 1 .885-5.964 3.012 3.012 0 0 1 2.536 3.422 3.014 3.014 0 0 1-3.421 2.542Zm-86.547-59.447a3.015 3.015 0 1 1 .885-5.964 3.013 3.013 0 0 1 2.535 3.424 3.012 3.012 0 0 1-3.42 2.54Z"/><path fill="#fff" d="M819.666 352.789a3.014 3.014 0 1 1 .885-5.965 3.015 3.015 0 0 1 2.538 3.422 3.012 3.012 0 0 1-3.423 2.543Zm30.679 107.684a1.174 1.174 0 0 1-.989-1.336 1.176 1.176 0 1 1 2.328.345 1.176 1.176 0 0 1-1.339.991Z"/><path fill="#C567CD" d="M844.773 408.178a1.177 1.177 0 1 1 .344-2.33 1.177 1.177 0 0 1-.344 2.33Zm42.624 55.463a2.012 2.012 0 0 1-1.693-2.283 2.013 2.013 0 0 1 2.283-1.693 2.008 2.008 0 0 1 1.693 2.283 2.008 2.008 0 0 1-2.283 1.693Z"/><path fill="#fff" d="M832.19 427.752a2.009 2.009 0 0 1-1.694-2.285 2.008 2.008 0 1 1 3.973.59 2.008 2.008 0 0 1-2.279 1.695Z"/><path fill="#C567CD" d="M997.117 353.391a2.01 2.01 0 1 1 .584-3.977 2.01 2.01 0 0 1-.584 3.977Z"/><path fill="#fff" d="M847.259 440.85a2.278 2.278 0 0 1-1.918-2.585 2.279 2.279 0 0 1 2.586-1.917 2.28 2.28 0 0 1 1.919 2.586 2.28 2.28 0 0 1-2.587 1.916Z"/><path fill="#B8B8B8" d="M925.451 360.976a3.369 3.369 0 0 1-2.84-3.829 3.369 3.369 0 1 1 6.664.988 3.368 3.368 0 0 1-3.824 2.841Z"/><path fill="#B53DBB" d="M830.485 370.213c-7.419 50.007 27.103 96.559 77.108 103.978 50.012 7.42 96.567-27.104 103.977-77.111 7.42-50.008-27.098-96.56-77.109-103.98-50.006-7.419-96.556 27.105-103.976 77.113Z"/><path fill="#D281D9" d="M893.729 308.738c18.529-9.527 64.924-7.996 65.677 28.05.754 36.046-61.393 57.337-85.861 39.468-24.468-17.869-13.577-50.153 20.184-67.518Z"/><path fill="#631695" d="M936.618 323.295c-1.178 3.805 3.349 6.312 10.649 2.499 7.301-3.815 12.511-1.818 22.037 2.043 9.532 3.863 15.176 5.008 8.269.003-6.913-5.004 10.226 1.212 20.28 6.039-13.798-21.28-36.323-36.759-63.382-40.773-19.931-2.957-39.304.752-55.879 9.443 1.205.416 2.307 1.088 2.934 2.166 1.953 3.35 1.252 6.001 5.612 7.567 4.36 1.564 5.316-.743 14.053 6.37 8.737 7.109 19.652 7.812 13.647 2.942-6.012-4.872 22.959-2.103 21.78 1.701Zm-73.475 47.561c3.137 5.667 16.835 14.433 28.596 17.71 11.756 3.274-.167-.943.333-6.379.499-5.435 19.929 3.875 37.709 18.145 17.78 14.267 12.379 7.345 8.686 1.288-3.693-6.058 11.193-3.236 19.574 6.272 8.388 9.506 15.084 20.543 19.41 20.266 4.326-.276-10.269-19.242 5.849-12.912 1.487.582 9.165 10.215 14.884 17.708 6.066-9.478 10.456-20.219 12.706-31.869-6.89-8.456-12.762-12.585-11.792-7.917 1.252 6.002-5.365 3.183-11.066-3.783-5.701-6.968-14.054-14.635-23.479-12.972-9.431 1.661-14.135.351-17.194-3.777-3.059-4.126-28.184-14.281-25.736-8.103 2.453 6.18-11.671 4.39-19.94-1.734-8.276-6.125 6.733-2.061 1.011-4.747-5.722-2.685-21.533-9.622-28.144-6.318-6.611 3.305-8.809-2.53-11.3-8.41-2.492-5.879-14.425-1.834-14.343-8.556.025-2.065-.509-4.067-1.261-5.851a94.991 94.991 0 0 0-3.14 4.482c-.084.132-.174.262-.257.396-.272.405-.525.817-.784 1.229l-.326.515c-.245.402-.49.806-.736 1.214-.111.182-.214.366-.325.55-.24.411-.474.823-.714 1.235l-.289.527c-.243.43-.487.863-.718 1.302-.071.137-.15.278-.216.42-.256.476-.512.953-.756 1.435l-.018.035a93.615 93.615 0 0 0-2.496 5.355l-.001.008c-.226.53-.446 1.065-.66 1.601-.048.111-.097.222-.139.334-.209.505-.4 1.016-.597 1.526l-.158.42c-.19.504-.368 1.012-.552 1.521-.053.14-.1.283-.147.425-.179.52-.365 1.041-.532 1.565l-.109.342c-.185.56-.358 1.12-.531 1.685l-.001.006c1.465.298 2.789 1.078 4.024 3.267 3.393 6.012 17.38 16.964 17.19 12.039-.19-4.926 5.348-7.165 8.485-1.495Zm69.133 82.797c5.278-1.606 11.927 1.602 22.715 15.013-14.544 5.825-30.772 7.996-47.387 5.531-36.377-5.398-64.553-31.502-74.356-64.578 1.636 1.131 3.402 2.982 4.946 5.59 5.39 9.063 16.585 14.091 15.289 8.388-1.297-5.701 11.065 3.785 17.155 10.199 6.091 6.412 9.556 7.844 13.169 4.097 3.613-3.749 17.294 1.035 26.87 10.72 9.583 9.684 16.384 11.307 23.786 13.016 7.395 1.71-8.276-6.125-2.187-7.976Z"/><path fill="#E7C0EA" d="M893.742 308.74a86.631 86.631 0 0 0-6.368 3.619c4.161 1.401 5.238-.692 13.821 6.291 8.738 7.11 19.654 7.813 13.641 2.941-6.007-4.871 22.96-2.103 21.79 1.702-1.182 3.805 3.342 6.312 10.644 2.499 3.385-1.768 6.325-2.276 9.445-1.941-10.253-23.314-46.987-23.332-62.973-15.111Zm-30.493 34.582c2.495 5.88 4.692 11.715 11.301 8.41 6.615-3.304 22.42 3.633 28.147 6.318 5.72 2.686-9.289-1.378-1.016 4.747 8.273 6.124 22.396 7.913 19.945 1.735-1.788-4.513 11.133-.312 19.421 3.89-11.212 8.113-25.954 13.197-39.551 14.121-5.525-2.303-9.209-2.682-9.422-.358-.014.099-.011.198-.008.297-7.147-.625-13.591-2.631-18.512-6.224-12.452-9.093-15.739-21.918-11.519-34.61.503.448.925.992 1.214 1.674Zm38.196 119.956c-12.076-6.352-17.599-5.237-28.583-10.805-10.99-5.568.141 7.896 9.675 9.967 9.534 2.071 31.082 7.237 18.908.838Z"/><path fill="#B53DBB" d="M977.499 401.258c-5.09-9.942-24.806-12.189-21.808-5.838 2.992 6.351 27.259 16.495 21.808 5.838Z"/><path fill="#E7C0EA" d="M918.585 401.036c-1.803-3.523-8.787-4.318-7.723-2.069 1.057 2.25 9.659 5.843 7.723 2.069Zm-50.593-19.229c-2.327-4.82-11.473-5.846-10.102-2.765 1.365 3.079 12.593 7.932 10.102 2.765Zm131.435 2.617c-2.33-4.823-11.471-5.846-10.104-2.767 1.372 3.082 12.597 7.933 10.104 2.767Zm-71.284 65.255c-2.326-4.821-11.471-5.846-10.101-2.765 1.371 3.079 12.597 7.932 10.101 2.765Zm-77.77-34.936c-2.328-4.822-11.473-5.848-10.096-2.765 1.362 3.078 12.59 7.932 10.096 2.765Zm126.564-78.39c-2.328-4.822-11.472-5.848-10.103-2.767 1.369 3.08 12.595 7.934 10.103 2.767Zm15.092-.278c-1.263-2.619-6.228-3.175-5.485-1.503.742 1.673 6.839 4.308 5.485 1.503Zm-36.242 36.686c-1.268-2.617-6.231-3.173-5.494-1.502.743 1.674 6.842 4.308 5.494 1.502Zm29.36 49.681c-1.267-2.618-6.236-3.176-5.494-1.503.749 1.673 6.845 4.308 5.494 1.503Zm-51.485 3.616c-1.267-2.619-6.234-3.176-5.488-1.503.74 1.674 6.841 4.309 5.488 1.503Zm-22.129 14.021c-.838-1.734-4.129-2.104-3.635-.995.494 1.108 4.531 2.854 3.635.995Zm45.222 20.634c-.838-1.736-4.128-2.104-3.637-.996.491 1.108 4.532 2.854 3.637.996Zm-49.352-70.716c-.836-1.734-4.121-2.103-3.629-.995.492 1.109 4.528 2.853 3.629.995Zm20.933 12.585c-.834-1.733-4.123-2.102-3.633-.994.496 1.109 4.531 2.854 3.633.994Zm-54.257-57.52c-.834-1.734-4.12-2.102-3.634-.996.497 1.11 4.533 2.855 3.634.996Zm42.478 19.334c-.837-1.734-4.129-2.104-3.634-.994.491 1.106 4.528 2.851 3.634.994Zm13.561-37.681c-.84-1.734-4.126-2.102-3.63-.994.489 1.107 4.528 2.853 3.63.994Zm-92.802 56.437c-.839-1.734-4.126-2.102-3.631-.994.49 1.109 4.526 2.853 3.631.994Zm35.872 19.834c-.838-1.735-4.125-2.102-3.633-.995.491 1.109 4.53 2.854 3.633.995Zm-11.795 30.943c-4.905-4.853-12.814-6.495-7.89.141 4.918 6.636 16.475 8.351 7.89-.141Z"/><path fill="#fff" d="M922.052 308.22c-12.867-3.998-25.13 3.201-16.961 6.953 8.163 3.751 30.382-2.778 16.961-6.953Z"/><path fill="#C567CD" d="M829.492 382.657a88.903 88.903 0 0 0 .271 8.295c6.085 3.036 13.238 6.968 18.684 11.047 11.678 8.747 21.798 20.625 36.476 24.401 14.67 3.777 33.545 3.981 56.997 20.18 10.107 6.979 19.147 12.059 26.17 15.581a92.168 92.168 0 0 0 15.725-11.899c-19.627-5.896-57.068-20.821-69.801-29.353-15.452-10.35-19.649-6.778-40.689-12.366-18.717-4.968-25.033-10.497-43.833-25.886Zm34.8-70.839c7.641 6.759 13.95 11.994 23.914 14.507 12.656 3.19 25.378 10.327 32.318 16.607 6.945 6.28 24.023 6.188 31.915 6.047 7.899-.14 12.722 7.137 33.247 14.778 10.62 3.951 19.464 4.475 25.524 4.062a90.028 90.028 0 0 1 1.35 14.467 249.53 249.53 0 0 1-21.692-9.23c-19.595-9.471-31.036-16.417-45.992-17.324-14.962-.907-22.378-3.977-33.532-12.85-11.149-8.872-31.624-7.973-37.831-14.799-3.372-3.71-10.186-7.733-15.703-10.638a93.28 93.28 0 0 1 6.482-5.627Z"/><path fill="#8416B2" d="M932.965 418.279c8.477 5.715 35.959 18.254 55.738 27.011a89.165 89.165 0 0 0 5.562-6.704c-24.38-6.907-41.911-13.24-63.196-25.182-25.449-14.276-47.848-13.661-70.272-26.176-15.026-8.387-24.693-17.152-29.431-22.025a102.164 102.164 0 0 0-.626 3.361c3.333 5.672 10.469 13.832 25.726 21.303 26.918 13.182 62.782 19.158 76.499 28.412Zm-26.052-72.114c-13.335-5.371-36.251-15.087-53.046-24.717a93.84 93.84 0 0 0-3.62 4.136c13.143 9.278 38.194 17.084 50.602 21.651a832.293 832.293 0 0 1 27.305 10.613s-5.757-5.447-21.241-11.683Zm101.857 11.353c-12.057-4.784-24.858-9.479-31.717-10.791-15.315-2.928-57.576-14.447-82.305-24.679-10.608-4.387-18.494-9.936-24.051-14.848a90.451 90.451 0 0 1 2.871-1.824c16.752 15.946 48.346 26.726 72.142 31.452 22.015 4.371 38.9 5.655 58.26 8.114a90.789 90.789 0 0 1 4.8 12.576Z"/><path fill="#4A047C" d="M951.384 313.385c-7.325-3.711-28.945-11.294-28.945-11.294s13.761 1.604 26.283 5.649c9.147 2.955 20.58 4.613 31.284 5.896a90.764 90.764 0 0 1 6.567 6.119c-10.398-1.182-29.89-3.686-35.189-6.37Zm-112.016 28.87.016-.035c.246-.481.498-.959.754-1.435.066-.143.143-.283.215-.421.234-.437.473-.871.717-1.302.099-.174.193-.351.292-.526l.272-.467c5.983 8.208 13.746 16.374 22.173 20.072 9.034 3.966 20.941 9.232 23.798 13.593 2.852 4.361-2.462 1.822-11.003-2.508-8.547-4.33-22.422-8.138-28.14-13.8-3.469-3.429-7.604-7.759-10.326-10.641.397-.852.809-1.694 1.232-2.53Zm92.057 132.35c-8.843-3.73-20.094-9.878-23.079-12.733-4.09-3.91-25.206-12.926-21.72-12.846 4.282.099 18.278 3.587 22.781 8.63 4.187 4.688 11.145 6.009 33.289 14.936a90.76 90.76 0 0 1-11.271 2.013Z"/><path fill="#fff" d="M1012.01 295.607a5.3 5.3 0 0 0 .32 7.476 5.297 5.297 0 0 0 7.48-.319 5.298 5.298 0 0 0-.32-7.475 5.297 5.297 0 0 0-7.48.318Z"/><g filter="url(#filter1_d_9174_236999)"><path fill="#6630EA" d="M827.062 408.4c340.188 165.446 303.088-211.528 613.888-250.444 310.8-38.915 310.14 120.379 142.17 258.695-107.15 88.23-208.08 190.489-512.73 130.431-151.815-29.928-251.778 65.545-364.364 155.418H-562.497c-39.298-117.843 109.755-273.735 205.994-300.818 130.556-36.74 289.2-155.293 515.855 51.218 226.654 206.512 327.518-209.946 667.71-44.5Z"/></g><path fill="#fff" d="M543.355 1831c145.073 272.9 574.125-15.61 686.305 244.57 71.79 166.52 224.91 204.68 224.91 204.68s-68.79-56.66-34.11-153.22c34.69-96.55 270.02-56.08 224.34-440.58-45.68-384.49 275.88-384.83 141.03-545.22-228.97-272.328 406.51-719.673-240.48-924.365-334.19-79.794-264.8 313.378-656.815 245.151C496.525 393.79 565.329 751.108-5.341 669.584-264.02 632.63-384.031 487.31-431.708 310.23c-57.503-213.575-9.785 507.355 26.775 678.935 30.683 144.005 122.952 174.605 194.334 370.035 195.426 585.12 609.408 150.91 753.954 471.8Z"/></g><defs><linearGradient id="paint0_linear_9174_236999" x1="267.227" x2="397.615" y1="302.492" y2="980.854" gradientUnits="userSpaceOnUse"><stop stop-color="#5D4AD4"/><stop offset=".593" stop-color="#212123"/></linearGradient><linearGradient id="paint1_linear_9174_236999" x1="825.496" x2="974.397" y1="465.259" y2="299.471" gradientUnits="userSpaceOnUse"><stop stop-color="#811084"/><stop offset="1" stop-color="#490C73"/></linearGradient><filter id="filter0_d_9174_236999" width="2697.53" height="747.182" x="-745.078" y="-25.748" color-interpolation-filters="sRGB" filterUnits="userSpaceOnUse"><feFlood flood-opacity="0" result="BackgroundImageFix"/><feColorMatrix in="SourceAlpha" result="hardAlpha" values="0 0 0 0 0 0 0 0 0 0 0 0 0 0 0 0 0 0 127 0"/><feOffset dx="9.93" dy="6.111"/><feGaussianBlur stdDeviation="11.84"/><feComposite in2="hardAlpha" operator="out"/><feColorMatrix values="0 0 0 0 0.379167 0 0 0 0 0.254547 0 0 0 0 0.0126389 0 0 0 0.1 0"/><feBlend in2="BackgroundImageFix" result="effect1_dropShadow_9174_236999"/><feBlend in="SourceGraphic" in2="effect1_dropShadow_9174_236999" result="shape"/></filter><filter id="filter1_d_9174_236999" width="2311.87" height="597.859" x="-582.701" y="134.431" color-interpolation-filters="sRGB" filterUnits="userSpaceOnUse"><feFlood flood-opacity="0" result="BackgroundImageFix"/><feColorMatrix in="SourceAlpha" result="hardAlpha" values="0 0 0 0 0 0 0 0 0 0 0 0 0 0 0 0 0 0 127 0"/><feOffset dx="9.93" dy="6.111"/><feGaussianBlur stdDeviation="11.84"/><feComposite in2="hardAlpha" operator="out"/><feColorMatrix values="0 0 0 0 0.0126389 0 0 0 0 0.0273 0 0 0 0 0.379167 0 0 0 0.1 0"/><feBlend in2="BackgroundImageFix" result="effect1_dropShadow_9174_236999"/><feBlend in="SourceGraphic" in2="effect1_dropShadow_9174_236999" result="shape"/></filter><clipPath id="clip0_9174_236999"><path fill="#fff" d="M-180 0h1800v732.188H-180z"/></clipPath></defs></svg>