<svg xmlns="http://www.w3.org/2000/svg" width="1440" height="1242" fill="none" viewBox="0 0 1440 1242"><g clip-path="url(#clip0_9174_235361)"><path fill="url(#paint0_linear_9174_235361)" d="M1485.42 940.095c176.72 89.375 179.41-8.175 179.41-8.175l167.82-417.08-737.85-397.987s-123.809 154.313 38.54 264.402c162.35 110.089-2.01 193.463 149.69 295.172 151.71 101.71 25.67 174.289 202.39 263.668Z"/><path fill="url(#paint1_linear_9174_235361)" d="M554.303 1198.43c-247.511 92.01-671.49-105.3-671.49-105.3l274.985-510.07L1194.93 166.023s140.98 222.973-90.59 344.571c-231.563 121.599-26.26 256.638-242.463 368.726-216.208 112.087-60.062 227.1-307.574 319.11Z"/><path fill="#fff" d="M763.676 545.265c.195-.223-.07-.839-.625-1.575a1.145 1.145 0 0 1-.053-1.288c.494-.784.707-1.421.495-1.626-.212-.205-.794.074-1.491.661a.995.995 0 0 1-1.22.055c-.742-.521-1.347-.748-1.541-.524-.195.225.07.841.626 1.576.281.371.302.894.053 1.29-.494.784-.707 1.421-.496 1.627.212.205.795-.075 1.492-.662a.995.995 0 0 1 1.222-.055c.74.521 1.343.746 1.538.521Zm54.189 138.853c.188-.343-.315-1.05-1.22-1.824a1.484 1.484 0 0 1-.411-1.63c.419-1.147.522-2.025.197-2.223-.326-.199-.995.332-1.728 1.287a1.31 1.31 0 0 1-1.543.435c-1.087-.444-1.919-.553-2.108-.209-.189.345.314 1.053 1.221 1.826.458.39.625 1.052.413 1.631-.421 1.149-.523 2.026-.199 2.225.326.198.995-.332 1.729-1.29.37-.483.996-.659 1.545-.434 1.084.444 1.915.552 2.104.206Zm-45.179 97.49c.281-.324-.103-1.217-.907-2.283a1.661 1.661 0 0 1-.077-1.869c.715-1.135 1.025-2.06.718-2.358-.307-.297-1.153.109-2.162.959a1.443 1.443 0 0 1-1.77.08c-1.076-.756-1.952-1.084-2.234-.76-.283.326.101 1.22.907 2.285.408.539.439 1.297.077 1.872-.715 1.136-1.025 2.06-.718 2.357.307.298 1.152-.107 2.163-.959a1.441 1.441 0 0 1 1.771-.079c1.074.755 1.949 1.081 2.232.755Zm20.069-28.391a1.234 1.234 0 0 0-.069-1.676 1.081 1.081 0 0 0-1.586.072 1.234 1.234 0 0 0 .068 1.676c.457.443 1.168.41 1.587-.072Zm46.132-67.448c.122-.598-.238-1.187-.804-1.315-.566-.129-1.124.251-1.246.848-.121.599.239 1.188.805 1.316.566.129 1.123-.251 1.245-.849Zm24.294-12.811c.155-.759-.303-1.508-1.022-1.671-.719-.163-1.427.319-1.582 1.079-.155.76.303 1.508 1.022 1.671.719.164 1.427-.32 1.582-1.079Zm-183.614-19.866a1.69 1.69 0 0 0-.094-2.297 1.482 1.482 0 0 0-2.175.099 1.691 1.691 0 0 0 .094 2.298c.627.607 1.6.562 2.175-.1Zm64.31 111.041a1.234 1.234 0 0 0-.068-1.676 1.082 1.082 0 0 0-1.587.073 1.234 1.234 0 0 0 .068 1.676c.457.442 1.168.41 1.587-.073Zm-89.751-91.192a1.69 1.69 0 0 0-.094-2.297 1.482 1.482 0 0 0-2.175.099 1.69 1.69 0 0 0 .094 2.297c.627.607 1.6.563 2.175-.099Zm76.403-111.626a1.385 1.385 0 0 0-.077-1.883 1.215 1.215 0 0 0-1.783.082 1.385 1.385 0 0 0 .077 1.882 1.215 1.215 0 0 0 1.783-.081Zm72.308 162.143a.634.634 0 0 0-.035-.862.556.556 0 0 0-.816.038.634.634 0 0 0 .035.862.556.556 0 0 0 .816-.038Zm59.371-79.709c.08-.39-.155-.775-.525-.859-.369-.084-.734.165-.814.555-.079.39.156.775.526.859.37.084.733-.164.813-.555Zm-193.405 49.363a.869.869 0 0 0-.048-1.181.763.763 0 0 0-1.119.051.87.87 0 0 0 .049 1.181.762.762 0 0 0 1.118-.051Zm15.338-66.246a.87.87 0 0 0-.048-1.182.763.763 0 0 0-1.119.051.87.87 0 0 0 .049 1.181.761.761 0 0 0 1.118-.05Zm40.353-39.569a.711.711 0 0 0-.04-.967.625.625 0 0 0-.916.041.713.713 0 0 0 .039.968.625.625 0 0 0 .917-.042Zm-8.563 52.407c.435-.615.314-1.487-.269-1.945-.583-.46-1.408-.332-1.842.284-.435.616-.314 1.487.269 1.946.583.459 1.408.331 1.842-.285Zm630.309-57.138c.35.162.96-.439 1.59-1.471.32-.52.93-.764 1.5-.602 1.12.322 1.96.338 2.11-.024.15-.362-.42-1.01-1.39-1.68-.5-.339-.73-.977-.57-1.576.3-1.188.32-2.074-.02-2.236-.35-.163-.96.439-1.6 1.472-.32.521-.92.766-1.49.603-1.13-.323-1.96-.339-2.12.023-.15.363.42 1.011 1.4 1.681.49.339.72.978.57 1.578-.31 1.186-.32 2.069.02 2.232Zm-96.5-37.318c.33.262 1.14-.234 2.06-1.19a1.44 1.44 0 0 1 1.75-.275c1.14.633 2.04.862 2.29.508.25-.353-.22-1.199-1.12-2.171a1.64 1.64 0 0 1-.26-1.85c.6-1.209.81-2.164.48-2.426-.34-.264-1.14.233-2.06 1.19a1.44 1.44 0 0 1-1.75.276c-1.15-.634-2.05-.863-2.3-.51-.25.354.22 1.2 1.13 2.173.46.491.56 1.242.26 1.852-.6 1.206-.82 2.159-.48 2.423Zm28.82 18.13c.5.39 1.2.28 1.57-.247.37-.526.27-1.269-.23-1.659-.5-.39-1.2-.28-1.57.246-.37.527-.27 1.269.23 1.66Zm68.31 41.449c.58.066 1.09-.374 1.16-.982.06-.608-.36-1.154-.93-1.22-.58-.065-1.1.374-1.16.982-.06.608.36 1.154.93 1.22Zm14.59 24.186c.73.084 1.39-.474 1.47-1.247.08-.772-.45-1.466-1.18-1.55-.73-.083-1.39.475-1.47 1.248-.08.772.45 1.466 1.18 1.549Zm-.39-194.943c.69.535 1.65.384 2.16-.337.5-.722.36-1.74-.32-2.275-.69-.535-1.65-.384-2.16.338-.5.721-.36 1.739.32 2.274Zm-97.87 79.099c.5.39 1.2.28 1.57-.247.37-.526.26-1.269-.24-1.659-.49-.39-1.2-.28-1.57.246a1.23 1.23 0 0 0 .24 1.66Zm76.54-103.761c.68.535 1.65.384 2.15-.338.51-.721.37-1.739-.32-2.274a1.482 1.482 0 0 0-2.15.337c-.51.721-.37 1.74.32 2.275Zm-32.1 161.473c.25.2.61.144.8-.127a.629.629 0 0 0-.12-.853.55.55 0 0 0-.8.126.63.63 0 0 0 .12.854Zm81.23 54.076c.37.043.71-.244.75-.641.04-.397-.23-.754-.61-.797-.37-.043-.71.244-.75.641-.04.397.23.754.61.797Zm-66.6-198.034c.35.276.85.198 1.11-.173a.86.86 0 0 0-.17-1.17.758.758 0 0 0-1.1.174.867.867 0 0 0 .16 1.169Zm63.97 9.225c.36.275.85.197 1.11-.174a.867.867 0 0 0-.16-1.169.767.767 0 0 0-1.11.173.869.869 0 0 0 .16 1.17Zm41.46 38.268a.63.63 0 0 0 .91-.142.712.712 0 0 0-.14-.958.63.63 0 0 0-.91.142.712.712 0 0 0 .14.958Zm-50.23-3.544c.62.392 1.43.175 1.8-.485.37-.66.16-1.513-.46-1.905-.63-.393-1.43-.175-1.8.485-.38.66-.17 1.513.46 1.905Z"/><path fill="url(#paint2_linear_9174_235361)" d="M486.405 941.417c-378.144 43.512-430.157-156.73-430.157-156.73L130.421 69H1603.18c-24.37 41.332-75.44 77.629-168.57 100.637-366.03 90.419-93.75 262.585-434.999 344.984-341.244 82.398-135.063 383.285-513.206 426.796Z"/><g filter="url(#filter0_d_9174_235361)"><path fill="url(#paint3_linear_9174_235361)" d="M1891.24 941.427c378.15 43.511 318.06-134.184 318.06-134.184L2229.86 94.5H793.679c28.663 30.612 75.939 57.008 149.364 75.146 366.017 90.419 93.747 262.586 434.997 344.984 341.24 82.399 135.06 383.285 513.2 426.797Z"/></g><path fill="#fff" d="M384.169 670.449c.262-.125.249-.801.013-1.708a1.129 1.129 0 0 1 .433-1.207c.745-.514 1.179-1.011 1.061-1.288-.118-.277-.758-.262-1.617-.013a1.014 1.014 0 0 1-1.142-.457c-.488-.788-.959-1.248-1.221-1.123-.263.125-.249.802-.013 1.709.12.458-.055.948-.432 1.208-.747.515-1.18 1.012-1.062 1.288.118.277.757.263 1.617.013.435-.126.898.06 1.144.458.486.787.956 1.245 1.219 1.12Zm-2.004 150.173c.302-.237.103-1.097-.44-2.184a1.497 1.497 0 0 1 .23-1.67c.814-.88 1.236-1.644 1.011-1.961-.225-.319-1.038-.109-2.068.464-.52.29-1.16.192-1.581-.242-.833-.861-1.558-1.308-1.859-1.07-.303.238-.104 1.099.44 2.186a1.495 1.495 0 0 1-.229 1.671c-.815.881-1.236 1.645-1.012 1.962.225.318 1.038.109 2.069-.466a1.304 1.304 0 0 1 1.582.244c.831.86 1.554 1.304 1.857 1.066Zm-77.896 70.794c.38-.18.36-1.16.019-2.475-.173-.665.081-1.373.627-1.75 1.08-.746 1.71-1.467 1.539-1.868-.171-.401-1.1-.38-2.345-.019-.628.182-1.299-.087-1.656-.663-.707-1.142-1.39-1.809-1.77-1.628-.382.182-.362 1.163-.019 2.477.173.665-.081 1.375-.627 1.753-1.082.746-1.711 1.467-1.54 1.867.171.402 1.099.381 2.345.019.63-.182 1.302.087 1.658.664.705 1.141 1.387 1.805 1.769 1.623Zm29.041-17.74c.566-.269.817-.972.563-1.569-.255-.597-.92-.863-1.486-.594-.565.269-.817.972-.562 1.569.255.597.92.863 1.485.594Zm67.567-42.786c.335-.499.224-1.19-.249-1.544a1.014 1.014 0 0 0-1.461.262c-.335.5-.224 1.191.248 1.544a1.013 1.013 0 0 0 1.462-.262Zm27.11-1.665c.425-.634.284-1.512-.315-1.961-.6-.45-1.432-.301-1.858.333-.425.634-.284 1.511.316 1.961.6.45 1.431.3 1.857-.333ZM266.64 734.546c.776-.37 1.121-1.332.771-2.151-.349-.819-1.26-1.183-2.036-.814-.775.369-1.12 1.332-.771 2.15.35.819 1.261 1.184 2.036.815Zm17.671 128.817c.566-.269.817-.972.563-1.569-.255-.597-.92-.863-1.486-.594-.565.269-.817.972-.562 1.569.255.597.92.863 1.485.594Zm-48.462-121.166c.776-.369 1.121-1.331.771-2.15-.349-.819-1.26-1.183-2.036-.814-.775.369-1.12 1.331-.771 2.15.35.819 1.261 1.184 2.036.814Zm111.874-70.794c.635-.302.918-1.091.632-1.762-.286-.671-1.034-.97-1.669-.667-.635.302-.918 1.091-.632 1.762.286.671 1.034.969 1.669.667Zm5.961 179.122c.291-.138.42-.5.289-.807a.565.565 0 0 0-.764-.305.624.624 0 0 0-.289.807.565.565 0 0 0 .764.305Zm84.305-48.548a.748.748 0 0 0-.162-1.008.663.663 0 0 0-.955.171.75.75 0 0 0 .163 1.009.661.661 0 0 0 .954-.172Zm-196.175-35.133c.399-.19.577-.685.397-1.105-.179-.421-.648-.609-1.047-.419-.399.189-.576.685-.396 1.106.179.42.648.608 1.046.418Zm38.815-54.497c.399-.19.577-.685.397-1.106-.18-.421-.648-.608-1.047-.418-.399.189-.576.684-.396 1.105.179.421.648.609 1.046.419Zm51.851-19.576c.326-.155.471-.561.324-.906a.635.635 0 0 0-.857-.343.7.7 0 0 0-.325.906.635.635 0 0 0 .858.343Zm-27.425 44.604c.629-.385.844-1.237.479-1.901-.365-.664-1.17-.89-1.799-.505-.63.385-.843 1.236-.479 1.901.365.664 1.171.89 1.799.505Z"/><g filter="url(#filter1_d_9174_235361)"><path fill="url(#paint4_linear_9174_235361)" d="M-340.39 1138.67c-383.576-30.97-289.15-195.429-289.15-195.429l144.601-861.566L908.565 192.304s223.515 348.844-157.237 366.774C370.58 577.009 606.875 801.136 252.273 815.969-102.328 830.802 43.185 1169.64-340.39 1138.67Z"/></g><path fill="#fff" d="M431.04 628.789c145.111-272.973 574.27 15.615 686.48-244.635 71.81-166.56 224.97-204.732 224.97-204.732s-68.81 56.679-34.12 153.26c34.69 96.581 371.38 121.32 325.69 505.912-45.69 384.596 341.61-227.22 206.72-387.656-229.02-272.396 239.67-906.312-407.48-701.568-334.28 79.815-264.88-313.458-656.991-245.214C384.198-427.6 453.02-785.01-117.796-703.465-688.613-621.92-584.38-12.843-517.491 301.079c30.691 144.037 122.983 995.111 194.384 799.631C-127.63 515.437 286.457 949.765 431.04 628.789Z"/><path fill="#212123" d="M1314.95 41.252c.16-.263-.25-.805-.98-1.398-.36-.3-.5-.805-.32-1.247.34-.877.42-1.547.16-1.7-.26-.153-.8.251-1.4.981-.29.368-.8.502-1.24.329-.88-.342-1.55-.427-1.7-.164-.15.263.25.805.98 1.398.37.3.5.806.33 1.249-.34.877-.43 1.547-.16 1.7.26.153.8-.251 1.39-.982a1.1 1.1 0 0 1 1.25-.33c.87.343 1.54.427 1.69.164Zm85.38 123.455c.13-.378-.54-.955-1.64-1.507a1.433 1.433 0 0 1-.77-1.5c.19-1.216.11-2.096-.27-2.217s-.95.549-1.51 1.648c-.27.555-.88.868-1.49.772-1.22-.189-2.1-.108-2.22.27-.12.38.55.959 1.65 1.509.55.278.87.887.77 1.501-.19 1.217-.11 2.097.27 2.218s.95-.548 1.5-1.649c.28-.556.89-.868 1.5-.772 1.21.19 2.09.107 2.21-.273Zm-25.78 105.42c.22-.38-.36-1.166-1.42-2.027a1.594 1.594 0 0 1-.47-1.809c.49-1.27.61-2.243.23-2.465-.38-.221-1.16.366-2.02 1.424-.43.534-1.16.727-1.81.477-1.26-.496-2.24-.619-2.46-.239-.22.382.37 1.169 1.42 2.028.54.435.73 1.168.48 1.811-.49 1.271-.62 2.244-.24 2.465.38.222 1.17-.364 2.03-1.424a1.573 1.573 0 0 1 1.8-.477c1.27.497 2.24.618 2.46.236Zm14.64-32.258a1.186 1.186 0 0 0-2.05-1.194c-.32.566-.13 1.292.43 1.622.57.33 1.29.138 1.62-.428Zm33.14-76.289a1.105 1.105 0 1 0-2.21.006 1.106 1.106 0 1 0 2.21-.006Zm-171.04 3.961c.45-.776.19-1.771-.59-2.223a1.624 1.624 0 0 0-2.22.587c-.45.776-.18 1.771.59 2.223.77.452 1.77.189 2.22-.587Zm89.88 94.004c.32-.566.13-1.292-.43-1.622a1.183 1.183 0 0 0-1.62.428c-.33.566-.14 1.292.43 1.622.56.33 1.29.138 1.62-.428Zm-111.86-68.879c.45-.776.19-1.772-.58-2.224a1.62 1.62 0 0 0-2.22.587c-.45.776-.19 1.772.58 2.224a1.62 1.62 0 0 0 2.22-.587Zm54.94-126.27c.37-.636.15-1.452-.48-1.822a1.331 1.331 0 0 0-1.34 2.303c.64.37 1.45.155 1.82-.48Zm108.98 142.126a.611.611 0 0 0-.22-.835.61.61 0 0 0-.61 1.055c.29.169.66.071.83-.22Zm44.18-91.249a.726.726 0 0 0-.73-.721.729.729 0 0 0-.72.725c.01.4.33.722.73.721.4-.001.72-.326.72-.725Zm-188.69 91.796a.828.828 0 0 0-.3-1.143.833.833 0 0 0-1.14.302c-.23.398-.09.91.3 1.143.4.232.91.097 1.14-.302Zm1.7-68.183a.845.845 0 0 0-.3-1.143.846.846 0 0 0-1.15.302.84.84 0 0 0 .31 1.143c.39.232.9.097 1.14-.302Zm33.13-47.745a.683.683 0 0 0-.25-.936.677.677 0 0 0-.93.247.69.69 0 0 0 .24.937c.33.19.75.08.94-.248Zm2.34 53.129c.32-.699.01-1.524-.69-1.84a1.375 1.375 0 0 0-1.83.693c-.32.699-.01 1.523.69 1.84.7.317 1.52.006 1.83-.693Z"/><path fill="#fff" d="M1350.05 141.78c8.95 9.985 18.66 15.369 26.09 18.253.6.234 1.18.45 1.75.653 6.26 2.219 13.25-.125 16.81-5.733 6.22-9.768 11.21-21.907 14.11-29.741 1.94-5.245.87-11.116-2.77-15.26-.3-.334-.61-.656-.94-.968-10.37-9.843-27.31-17.897-27.31-17.897l-27.74 50.693Z"/><path fill="#212123" d="M1378.32 92.761c3.86 1.938 17.3 8.965 25.91 17.144 4 3.793 5.33 9.629 3.39 14.865-3.03 8.202-7.92 19.978-13.98 29.499-3.26 5.118-9.56 7.269-15.32 5.22-7-2.481-17.25-7.592-26.73-17.894l26.73-48.834Zm.31 69.484c6.55 1.782 13.46-.831 17.14-6.61 6.19-9.711 11.15-21.665 14.23-29.982 2.29-6.193.71-13.098-4.03-17.592-10.39-9.868-26.94-17.79-27.64-18.122l-1.08-.514-28.75 52.534.6.67c10 11.145 20.95 16.621 28.37 19.254.38.136.77.256 1.16.362Z"/><path fill="#fff" d="M1328.76 97.957s-4.07 3.449-8.34 8.626c-4.41 5.349-9.02 12.554-9.56 19.711l42.95 22.677 19.07 10.069s1.15-2.384 2.56-6.267a94.421 94.421 0 0 0 2.32-7.239c2.3-8.313 4.07-19.263 1.75-29.29-.97-4.2-2.67-8.235-5.35-11.846a29.675 29.675 0 0 0-4.88-5.153c-6.65-5.534-12.27-6.189-17.18-6.65-4.32-.406-8.09-.662-11.52-3.957-2.88-2.76-4.95-6.837-6.74-11.218-4.47-10.906-7.24-23.672-16.55-22.587-2.12.247-3.87 1.143-5.22 2.532-7.03 7.257-3.01 28.005 16.69 40.592Z"/><path fill="#212123" d="M1369.25 99.24h-.01.01Zm-10.68-4.322c3.02.823 6.29 2.323 9.87 5.3 9.22 7.675 12.61 19.749 10.05 35.889-1.55 9.769-4.93 18.154-6.25 21.177l-60.07-31.72c1.58-13.142 17.21-26.504 17.37-26.641l1.32-1.113-1.45-.928c-15.11-9.652-21.02-24.61-18.92-33.784.95-4.108 3.4-6.597 6.92-7.008 6.74-.788 9.66 7.053 13.04 16.133 2.42 6.491 4.92 13.203 9.22 17.328 3.65 3.5 7.64 3.872 11.88 4.267 2.19.204 4.52.422 7.02 1.1Zm14.84 65.854.57-1.183c.21-.421 5-10.445 7-23.025 2.69-16.876-1.09-30.12-10.92-38.3-7.14-5.936-13.32-6.512-18.28-6.975-4.11-.383-7.35-.686-10.36-3.573-3.88-3.723-6.28-10.157-8.59-16.38-3.44-9.237-7-18.786-15.72-17.768-4.59.536-7.9 3.803-9.09 8.962-1.19 5.207-.08 11.812 3.05 18.119 2.36 4.774 6.97 11.57 15.58 17.453-4.02 3.688-16.16 15.787-17.09 28.093l-.06.83 63.91 33.747Z"/><path fill="#212123" d="M1350.79 122.347c-.83 2.166-3.26 3.258-5.42 2.434l-13.08-4.99a4.174 4.174 0 0 1-2.34-2.207 4.174 4.174 0 0 1-.09-3.217l1.07-2.827a4.183 4.183 0 0 1 2.2-2.341 4.168 4.168 0 0 1 3.21-.093l13.09 4.99a4.174 4.174 0 0 1 2.34 2.207c.45 1.025.49 2.167.09 3.218l-1.07 2.826Zm-5.69 5.014c3.3.897 6.82-.846 8.06-4.111l1.07-2.827a6.735 6.735 0 0 0-.15-5.159 6.713 6.713 0 0 0-3.75-3.542l-13.08-4.99c-3.47-1.321-7.37.431-8.69 3.906l-1.07 2.826a6.693 6.693 0 0 0 .15 5.16 6.678 6.678 0 0 0 3.75 3.541l13.08 4.99c.21.08.42.148.63.206Z"/><path fill="#212123" d="m1367.81 126.848-1.41 3.311-16.72-7.121 1.41-3.312 16.72 7.122Zm-.07 6.642 3.39-7.986-21.38-9.108-3.39 7.986 21.38 9.108Zm-39.59-34.05c.41.11.86.015 1.19-.292a43.634 43.634 0 0 1 12.83-8.25c.64-.27.95-1.014.68-1.66a1.267 1.267 0 0 0-1.66-.683 46.22 46.22 0 0 0-13.57 8.726 1.28 1.28 0 0 0-.07 1.795c.17.182.38.303.6.364Z"/><path fill="#fff" d="m1319.14 94.63-2.96-1.13-6.09 16.023 2.96 1.129 6.09-16.022Z"/><path fill="#212123" d="m1318.05 95.118-5.48 14.44-1.38-.528 5.48-14.439 1.38.527Zm-4.5 16.624 6.68-17.604-4.54-1.732-6.68 17.605 4.54 1.731Z"/><path fill="#FAB0ED" d="M1319.41 88.648c-2.7-.735-5.48.863-6.22 3.57a5.08 5.08 0 0 0 3.57 6.234c2.7.735 5.48-.864 6.22-3.571a5.088 5.088 0 0 0-3.57-6.233Z"/><path fill="#212123" d="M1319.08 89.872a3.813 3.813 0 0 1 2.68 4.674 3.812 3.812 0 0 1-4.67 2.678 3.815 3.815 0 0 1-2.67-4.675 3.802 3.802 0 0 1 4.66-2.677Zm-2.65 9.803a6.335 6.335 0 0 0 7.77-4.463c.92-3.378-1.08-6.874-4.45-7.791-3.38-.918-6.86 1.085-7.78 4.463-.91 3.379 1.08 6.873 4.46 7.791Z"/><path fill="#F3C716" d="m1340.47 101.529-2.96-1.129-6.09 16.022 2.96 1.129 6.09-16.022Z"/><path fill="#212123" d="m1338.85 102.27-5.19 13.648-.59-.226 5.19-13.648.59.226Zm-3.72 16.926 6.99-18.396-5.33-2.033-6.99 18.395 5.33 2.034Z"/><path fill="#FAB0ED" d="M1340.73 95.548a5.062 5.062 0 0 0-6.22 3.57 5.074 5.074 0 0 0 3.56 6.233c2.7.735 5.49-.863 6.22-3.571.73-2.707-.86-5.497-3.56-6.232Z"/><path fill="#212123" d="M1340.41 96.771a3.815 3.815 0 0 1 2.67 4.675 3.809 3.809 0 0 1-4.67 2.678 3.816 3.816 0 0 1-2.67-4.675 3.808 3.808 0 0 1 4.67-2.678Zm-2.66 9.803c3.37.918 6.86-1.084 7.77-4.463.92-3.378-1.08-6.874-4.45-7.79-3.37-.918-6.86 1.084-7.78 4.462-.91 3.379 1.09 6.874 4.46 7.791Z"/><path fill="#FFEDB8" d="M1305.11 110.571c12.6 4.315 25.2 8.625 37.64 12.934.2-2.598-.16-5.209-.97-7.675-2-6.061-6.76-11.257-12.82-13.33-2.54-.872-5.25-1.169-7.92-.953-6.28.494-12.39 3.796-15.93 9.024Z"/><path fill="#FFFCF3" d="M1340.32 115.391c-2.01-5.337-6.32-9.826-11.76-11.689-.35-.121-.71-.231-1.07-.329a18.527 18.527 0 0 0-5.52-.623c.47.581.95 1.148 1.44 1.701a18.803 18.803 0 0 1 3.84.875c4.68 1.602 8.59 5.067 11.05 9.355.67.255 1.34.493 2.02.71Z"/><path fill="#F9DB81" d="M1338.8 115.63c-.16-.321-.34-.637-.51-.95a38.8 38.8 0 0 1-14.89-10.23 20.373 20.373 0 0 0-4.08-.077c-2.96.232-5.88 1.09-8.51 2.479l.15.029c2.75.555 5.49 1.211 8.22 1.954 6.68 1.817 13.27 4.153 19.62 6.795Z"/><path fill="#FFEDB8" d="M1340.67 116.414c-.11-.344-.23-.686-.36-1.023a38.12 38.12 0 0 1-2.02-.711 31 31 0 0 1 .52.95c.62.258 1.24.52 1.86.784Zm-30.19-9.621c.11.018.22.038.34.059a21.993 21.993 0 0 1 8.51-2.479c1.36-.11 2.73-.086 4.08.077-.5-.552-.98-1.119-1.44-1.7-4.1.144-8.18 1.577-11.49 4.043Z"/><path fill="#212123" d="M1327.48 103.373c.36.098.72.208 1.07.329 7.51 2.571 12.86 10.138 12.99 18.04-11.07-3.831-22.43-7.718-33.42-11.482l-.95-.325c4.8-5.823 13.09-8.526 20.31-6.562Zm16.41 21.87.12-1.638c.75-9.601-5.54-19.191-14.64-22.307-9.02-3.089-19.9.588-25.31 8.56l-.93 1.377 4.17 1.428c11.53 3.948 23.46 8.03 35.04 12.043l1.55.537Z"/><path fill="#fff" d="m1350.18 111.849-2.96-1.13-6.09 16.022 2.96 1.13 6.09-16.022Z"/><path fill="#212123" d="m1349.1 112.342-5.49 14.439-1.38-.527 5.49-14.439 1.38.527Zm-4.51 16.624 6.69-17.604-4.54-1.732-6.69 17.604 4.54 1.732Z"/><path fill="#FAB0ED" d="M1350.47 105.867a5.066 5.066 0 0 0-6.22 3.571c-.73 2.707.86 5.497 3.56 6.232a5.061 5.061 0 0 0 6.22-3.57 5.074 5.074 0 0 0-3.56-6.233Z"/><path fill="#212123" d="M1350.11 107.088c2.03.551 3.22 2.648 2.68 4.675a3.812 3.812 0 0 1-4.67 2.678 3.815 3.815 0 0 1-2.67-4.675 3.802 3.802 0 0 1 4.66-2.678Zm-2.65 9.804c3.37.917 6.86-1.085 7.77-4.463.92-3.379-1.08-6.874-4.45-7.791-3.37-.918-6.86 1.085-7.78 4.463a6.351 6.351 0 0 0 4.46 7.791Zm36.04 36.909c3.49.948 5.55 4.56 4.61 8.051-.95 3.491-4.55 5.56-8.04 4.612-3.48-.948-5.55-4.559-4.6-8.051.95-3.491 4.55-5.56 8.03-4.612Zm-4.09 15.113c4.83 1.316 9.83-1.554 11.14-6.397 1.32-4.842-1.55-9.852-6.38-11.167-4.83-1.315-9.83 1.555-11.15 6.397-1.31 4.843 1.56 9.852 6.39 11.167Z"/><path fill="#F9DB81" d="M1307.93 212.473c13.71 6.518 27.96 7.084 37.09 2.403 3.65-1.868 6.48-4.576 8.13-8.069 5.81-12.249-5.02-29.569-24.19-38.689-19.18-9.119-39.42-6.584-45.22 5.666-.06.12-.12.237-.16.361-5.44 12.222 5.37 29.3 24.35 38.328Z"/><path fill="#FFEDB8" d="M1318.16 214.927c5.96 1.621 11.87 2.14 17.25 1.466 7.02-.879 12.38-3.696 15.39-8.02a229.91 229.91 0 0 1-6.13-1.57c-21.88-5.954-39.19-14.573-57.14-28.386-.03.085-.05.171-.08.257 7.09 7.503 16.53 13.84 25.3 18.741 4.11 2.298 1.51 8.518-2.89 7.321-.08-.023-.17-.048-.25-.077a60.32 60.32 0 0 1-6.86-2.761c-5.17-2.458-9.73-5.513-13.52-8.904 2 4.298 5.22 8.555 9.41 12.401a57.843 57.843 0 0 0 9.85 5.93 58.206 58.206 0 0 0 9.67 3.602Z"/><path fill="#FCBE51" d="M1289.22 192.996c-2.28-4.903-2.99-9.859-1.77-14.32-.35-.365-.68-.731-1.02-1.102-.72-.563-1.44-1.133-2.16-1.713-1.34 3.888-1.05 8.334.8 12.948a49.58 49.58 0 0 0 4.15 4.187Z"/><path fill="#FCBE51" d="M1298.66 205.398c-4.19-3.845-7.41-8.102-9.41-12.4a48.12 48.12 0 0 1-4.15-4.187 30.827 30.827 0 0 0 2.48 4.819c2.7 4.31 6.49 8.32 11.08 11.768Zm-11.18-26.72c.02-.086.04-.172.07-.257-.36-.28-.73-.562-1.09-.845.33.371.67.737 1.02 1.102Z"/><path fill="#212123" d="m1328.97 168.12-.01-.001.01.001Zm-10.21-2.449c3.2.87 6.45 2.066 9.66 3.596 9.06 4.308 16.49 10.594 20.94 17.699 4.33 6.927 5.28 13.781 2.66 19.299-2.61 5.517-8.51 9.115-16.61 10.13-8.3 1.039-17.86-.76-26.92-5.068-9.06-4.309-16.49-10.594-20.94-17.699-4.33-6.927-5.27-13.78-2.66-19.299 4.54-9.581 18.66-12.796 33.87-8.658Zm-1.27 51.705c6.28 1.709 12.53 2.253 18.23 1.539 8.99-1.126 15.59-5.232 18.59-11.561s2-14.049-2.8-21.737c-4.7-7.51-12.51-14.131-22-18.645-9.49-4.511-19.55-6.392-28.32-5.292-8.99 1.125-15.59 5.231-18.59 11.56-3 6.329-2 14.048 2.81 21.736 4.69 7.51 12.51 14.132 21.99 18.645a60.529 60.529 0 0 0 10.09 3.755Z"/><path fill="#F9DB81" d="M1279.18 162.816c-.04.517-.06 1.034-.04 1.548.11 3.724 1.9 7.254 4.83 9.631 14.2 11.518 28.12 20.129 45.44 26.597 7.32 2.732 15.25 5.083 24.07 7.112 4.34.999 8.93-.315 12.07-3.492 1.26-1.279 2.35-2.71 3.2-4.334-30.62-8.699-62.1-22.848-87.8-42.401-1.16 2.096-1.61 3.758-1.77 5.339Z"/><path fill="#212123" d="M1366.83 200.651c-.61.93-1.33 1.811-2.18 2.67-2.81 2.842-6.98 4.047-10.89 3.145-27.5-6.327-47.49-16.022-68.99-33.46-3.07-2.49-4.69-6.253-4.32-10.069.11-1.191.42-2.318.96-3.531 29.42 22.06 62.33 34.552 85.42 41.245Zm-22.16 6.156c2.77.753 5.6 1.462 8.52 2.134 4.76 1.097 9.84-.371 13.26-3.832 1.41-1.428 2.57-2.989 3.43-4.64l.72-1.383-1.5-.426c-23.25-6.606-57.28-19.288-87.37-42.193l-1.17-.887-.71 1.281c-1.14 2.062-1.74 3.862-1.92 5.835-.45 4.664 1.51 9.257 5.24 12.284 19.54 15.846 37.85 25.394 61.5 31.827Z"/><path fill="#FCBE51" d="M1345.34 204.358c2.73.742 5.53 1.441 8.41 2.105 3.27.752 6.71.038 9.39-1.873-1.6-.33-3.31-.745-5.12-1.235-24.78-6.743-66.32-27.707-76.08-37.674-.53-.54-1.04-1.083-1.55-1.631 0 .661.07 1.317.18 1.961 5.49 5.967 12.5 10.547 19.69 14.409 9.27 4.98 19.08 9.008 27.92 14.732 1.95 1.268 4.05 2.947 4.32 5.208 4.12 1.459 8.39 2.785 12.84 3.998Z"/><path fill="#212123" d="M1345.04 205.592c2.72.74 5.53 1.443 8.43 2.112 4.02.923 8.24-.128 11.33-2.797a48.54 48.54 0 0 1-1.65-.317 11.725 11.725 0 0 1-9.39 1.873c-2.88-.663-5.68-1.363-8.41-2.105a178.957 178.957 0 0 1-12.84-3.998c.02.138.03.278.03.42a91.21 91.21 0 0 1-3.13-.188c4.91 1.832 10.09 3.493 15.63 5Zm-64.46-39.58a10.72 10.72 0 0 1-.18-1.962c-.41-.444-.81-.89-1.21-1.337 0 .034-.01.069-.01.103-.05.517-.06 1.035-.05 1.548.47.561.95 1.11 1.45 1.648Z"/><path fill="#FAB0ED" d="M1408.23 166.656c-4.16-1.134-8.46 1.33-9.59 5.504-1.13 4.174 1.33 8.476 5.49 9.609 4.17 1.134 8.46-1.331 9.6-5.504 1.13-4.174-1.33-8.476-5.5-9.609Z"/><path fill="#212123" d="M1407.9 167.884c3.48.948 5.55 4.559 4.6 8.051-.95 3.49-4.55 5.56-8.04 4.612-3.48-.948-5.55-4.56-4.6-8.051.95-3.492 4.55-5.56 8.04-4.612Zm-4.1 15.113c4.83 1.315 9.83-1.555 11.15-6.397 1.31-4.843-1.56-9.852-6.39-11.167-4.83-1.315-9.83 1.554-11.15 6.397-1.31 4.842 1.56 9.853 6.39 11.167Z"/><path fill="#C348BD" d="M1407.76 179.54a5.734 5.734 0 0 0 3.96-2.823 5.675 5.675 0 0 1-1.97-.181 5.765 5.765 0 0 1-4.18-4.657 5.806 5.806 0 0 1 .68-3.759 5.756 5.756 0 0 0-3.66 1.724c1.93 3.358 3.66 6.654 5.17 9.696Z"/><path fill="#F9DB81" d="M1291.25 119.46s27.46 11.256 48.41 20.962c20.96 9.707 57.53 29.723 57.53 29.723s.6-6.981.21-12.935a11.97 11.97 0 0 0-4.78-8.791c-4.31-3.239-12.03-8.788-21.9-14.818-16.13-9.872-37.99-21.03-60.02-25.475-3.45-.693-7.01.181-9.74 2.335-.27.208-.53.428-.77.659l-8.94 8.34Z"/><path fill="#FFFCF3" d="M1361.15 131.086c.68.18 1.35.347 1.99.501.14-.256.27-.505.39-.749-13.04-7.485-28.94-15.171-45.22-19.601-2.61-.709-5.23-1.336-7.85-1.864a10.691 10.691 0 0 0-7.09 1.037c.58.146 1.16.293 1.73.439 1.59-.346 3.25-.37 4.89-.041 2.68.54 5.35 1.181 8.02 1.905 15.45 4.205 30.48 11.264 43.14 18.373Z"/><path fill="#FCBE51" d="M1396.26 161.097a59.883 59.883 0 0 0-.13-3.805c0-.107-.01-.215-.02-.321a12.048 12.048 0 0 0-3.64-5.415 9.128 9.128 0 0 1 1.05 6.836c.95.862 1.87 1.765 2.74 2.705Zm-12.31-13.927a9.053 9.053 0 0 1 2.89.229c-.68-.483-1.39-.985-2.14-1.505-.24.448-.49.873-.75 1.276Zm-35.72-15.534c2.19-1.716 5.12-2.417 8-1.634a9.04 9.04 0 0 1 5.44 4.164c.44-.736.84-1.438 1.2-2.104-.57-.327-1.15-.653-1.73-.979-.2-.055-.41-.11-.62-.167-4.42-1.203-9.58-2.972-15.46-5.555-6.05-2.658-11.15-4.819-15.77-6.645a9.106 9.106 0 0 1 1.4 4.735 342 342 0 0 1 17.54 8.185Zm-33.16-14.378a9.188 9.188 0 0 1 3.81-2.365 182.133 182.133 0 0 0-10.46-3.169c-1.09-.296-2.2-.588-3.33-.878a11.971 11.971 0 0 0-4.79 2.238 44.183 44.183 0 0 1 7.38 1.671c2.46.783 4.93 1.62 7.39 2.503Z"/><path fill="#FFFCF3" d="M1396.14 156.979a10.732 10.732 0 0 0-4.25-7.538 236.246 236.246 0 0 0-6.54-4.739c-.2.418-.41.817-.62 1.199.75.521 1.46 1.023 2.14 1.506l.23.06a9.067 9.067 0 0 1 5.4 4.097 12.048 12.048 0 0 1 3.64 5.415Zm-33.24-24.909c.09-.162.18-.322.26-.479-.64-.154-1.31-.321-1.99-.5.58.326 1.16.652 1.73.979Zm-62.89-19.02.32.042a11.971 11.971 0 0 1 4.79-2.238c-.57-.147-1.15-.294-1.73-.439-.83.438-1.61.987-2.31 1.641l-1.07.994Z"/><path fill="#212123" d="M1318.32 111.238c32.87 8.945 64.21 31.174 73.56 38.199a10.716 10.716 0 0 1 4.27 7.859c.26 3.907.08 8.318-.07 10.791-7.52-4.089-37.71-20.405-55.87-28.815-17.64-8.171-40.14-17.543-46.64-20.231l7.5-6.989a10.714 10.714 0 0 1 9.4-2.678c2.62.527 5.24 1.154 7.85 1.864Zm79.99 60.956.16-1.937c.03-.289.61-7.147.21-13.129a13.263 13.263 0 0 0-5.28-9.722c-13.08-9.822-47.29-33.435-82.43-40.523a13.26 13.26 0 0 0-11.63 3.31l-10.39 9.693 1.83.751c.28.113 27.68 11.357 48.37 20.94 20.68 9.578 57.09 29.485 57.45 29.685l1.71.932Z"/><path fill="#F9DB81" d="M1261.49 124.613c1.84 8.31 7.19 25.717 21.35 40.174 10.7 10.93 58.99 34.643 81.86 38.808 15.11 2.75 31.37-2.013 40.68-5.564l.01-.003c.95-.367 1.84-.721 2.64-1.051a5.563 5.563 0 0 0 2.99-7.342c-2.08-4.806-5.61-12.443-10.2-20.291-3.43-5.873-8.25-10.812-14-14.438-14.89-9.389-47.79-28.85-79.53-38.944a42.488 42.488 0 0 0-14.85-1.966c-7.12.33-17.99 1.298-27.17 4.082-.64.198-1.22.5-1.72.885a5.555 5.555 0 0 0-2.06 5.65Z"/><path fill="#FFEDB8" d="M1407.71 195.754a4.223 4.223 0 0 0 1.93-1.751c-.71-.483-1.42-.967-2.14-1.447.4 1.059.45 2.167.21 3.198Zm2.49-4.442a4.452 4.452 0 0 0-.32-1.171v.001c-2.13-4.933-5.62-12.434-10.13-20.15a40.717 40.717 0 0 0-7.24-9.089 9.17 9.17 0 0 1-2.08 2.396 41.966 41.966 0 0 1 6.77 8.701c.63 1.071 1.23 2.138 1.82 3.193 1.19 2.143-.86 4.465-2.98 3.886a2.832 2.832 0 0 1-.69-.292c-18.01-10.58-58.57-32.016-95.32-45.862 38.67 15.442 75.59 35 110.17 58.387Zm-145.86-71.328c.06-.017.13-.034.19-.05 0-.029 0-.058-.01-.086-.06.044-.12.089-.18.136Zm.23-.06c5.87-1.501 12.17-2.349 17.61-2.828-.05-.33-.08-.663-.09-.999-5.38.619-11.18 1.613-16.42 3.205-.42.124-.8.309-1.14.54.01.028.03.054.04.082Zm80.08 15.828c.37-.473.78-.906 1.22-1.294.17-.31.35-.608.55-.893a345.27 345.27 0 0 0-16.06-7.496c-.25.87-.62 1.676-1.08 2.403a356.437 356.437 0 0 1 15.37 7.28Zm-31.92-14.021c.04-.18.08-.363.13-.543.17-.628.4-1.224.69-1.78-2.21-.784-4.42-1.528-6.62-2.229-.57-.181-1.14-.35-1.72-.506-1.64-.447-3.3-.791-4.96-1.031 0 .659-.06 1.327-.21 1.995a42.723 42.723 0 0 1 3.63.981c3.01.958 6.04 2.002 9.06 3.113Z"/><path fill="#212123" d="M1409.88 190.144c.45 1.061.47 2.236.03 3.308a4.238 4.238 0 0 1-2.34 2.362c-8.98 3.704-26.47 9.483-42.62 6.541-1.96-.357-4.11-.859-6.4-1.482-24.41-6.64-65.22-27.2-74.79-36.966-13.75-14.047-19.07-30.815-21.01-39.561-.49-2.184.79-4.4 2.91-5.042 8.96-2.72 19.55-3.695 26.86-4.033a41.08 41.08 0 0 1 14.41 1.91c31.04 9.87 62.97 28.552 79.23 38.809 5.6 3.531 10.3 8.373 13.59 14.004 4.51 7.717 7.99 15.217 10.13 20.151v-.001Zm-51.85 13.214c2.32.63 4.48 1.135 6.47 1.497 16.78 3.056 34.8-2.882 44.04-6.694a6.777 6.777 0 0 0 3.72-3.756 6.784 6.784 0 0 0-.06-5.269v-.001c-2.16-4.997-5.69-12.597-10.26-20.423-3.5-5.982-8.48-11.124-14.43-14.872-16.37-10.321-48.5-29.124-79.82-39.08a43.607 43.607 0 0 0-15.28-2.027c-7.46.346-18.28 1.345-27.48 4.14-3.38 1.024-5.43 4.55-4.66 8.025 2.01 9.011 7.49 26.29 21.68 40.787 9.76 9.967 51.3 30.93 76.08 37.673Z"/><path fill="#212123" d="M1410.9 194.771c.5.138 1.06-.053 1.38-.513.39-.579.24-1.369-.34-1.764a581.344 581.344 0 0 0-149.44-73.079c-.66-.21-1.38.153-1.59.82-.22.668.15 1.383.82 1.598a578.576 578.576 0 0 1 148.78 72.761c.12.082.25.141.39.177Z"/><path fill="#fff" d="M1375.44 152.773c3.38-1.065 6.67-3.953 9.12-9.418a.506.506 0 0 0 .05-.109c5.38-12.129 3.58-21.333.02-27.767-3.51-6.351-8.74-9.997-10.47-11.081-.37-.232-.58-.346-.58-.346l-5.36 14.073-.68 1.808s.25.399.29 1.406v.004c.08 1.868-.56 5.821-4.88 13.172-.31.541-.65 1.102-1.01 1.68a9.906 9.906 0 0 0-.91 1.827c-3.25 8.394 5.82 17.472 14.41 14.751Z"/><path fill="#212123" d="M1369 154.092c1.29.349 2.62.498 3.95.418 3.08-.183 8.84-1.824 12.8-10.754 6.34-14.291 2.85-24.639-1.18-30.803-4.36-6.656-10.15-9.885-10.4-10.019a1.27 1.27 0 0 0-1.22 2.226c.06.03 5.55 3.111 9.55 9.271 5.32 8.18 5.63 17.699.93 28.294-2.53 5.707-6.31 8.992-10.63 9.25-3.78.226-7.72-1.974-9.8-5.473-1.86-3.136-1.86-6.65-.01-9.641 7.89-12.714 6.05-16.903 5.6-17.613l-2.15 1.36s-.01-.022-.04-.071c.02.034 1.52 3.577-5.56 14.982-2.37 3.826-2.38 8.302-.02 12.282 1.87 3.144 4.87 5.389 8.18 6.291Z"/><path fill="#212123" d="M1365.53 129.811c.23.062.48.061.72-.016 9.49-3.04 20.01 5.481 20.11 5.567.54.445 1.34.367 1.79-.174.44-.542.36-1.342-.18-1.787-.47-.389-11.67-9.491-22.49-6.025-.67.213-1.04.928-.82 1.597.13.425.47.729.87.838Z"/><path fill="#fff" d="M1293.22 108.17c-4.16-1.134-8.45 1.331-9.59 5.504-1.13 4.174 1.33 8.476 5.5 9.609 4.16 1.134 8.46-1.331 9.59-5.504 1.13-4.174-1.33-8.476-5.5-9.609Z"/><path fill="#212123" d="M1292.88 109.395c3.49.948 5.55 4.559 4.61 8.051-.95 3.491-4.56 5.56-8.04 4.612-3.48-.948-5.55-4.56-4.6-8.051.94-3.492 4.55-5.56 8.03-4.612Zm-4.09 15.114c4.83 1.315 9.83-1.556 11.14-6.398 1.31-4.843-1.55-9.852-6.38-11.167-4.84-1.315-9.84 1.555-11.15 6.398-1.31 4.842 1.55 9.852 6.39 11.167Z"/><path fill="#FAB0ED" d="M1292.75 104.989a7.81 7.81 0 0 0-9.59 5.504c-1.13 4.174 1.33 8.476 5.49 9.609 4.17 1.134 8.46-1.331 9.59-5.504a7.819 7.819 0 0 0-5.49-9.609Z"/><path fill="#C348BD" d="M1289.13 118.325a5.752 5.752 0 0 0 7.06-4.054 5.732 5.732 0 0 0-.91-4.911 5.75 5.75 0 0 1-10.07 1.465 5.77 5.77 0 0 0 3.92 7.5Z"/><path fill="#212123" d="M1292.43 106.215c3.49.948 5.55 4.56 4.6 8.051-.94 3.49-4.55 5.56-8.03 4.612-3.48-.948-5.55-4.56-4.6-8.051.94-3.491 4.55-5.56 8.03-4.612Zm-4.09 15.113c4.83 1.315 9.83-1.554 11.14-6.397 1.31-4.842-1.55-9.852-6.38-11.167-4.84-1.315-9.84 1.555-11.15 6.397-1.31 4.843 1.55 9.853 6.39 11.167Zm33.76-1.021c3.48.948 5.55 4.56 4.6 8.051-.95 3.491-4.55 5.56-8.04 4.612-3.48-.948-5.54-4.56-4.6-8.051.95-3.491 4.55-5.56 8.04-4.612Zm-4.1 15.114c4.83 1.315 9.83-1.555 11.15-6.398 1.31-4.842-1.56-9.852-6.39-11.167-4.83-1.315-9.83 1.556-11.14 6.398-1.32 4.842 1.55 9.852 6.38 11.167Z"/><path fill="#FFE600" d="M1323.66 116.015a7.81 7.81 0 0 0-9.59 5.505c-1.13 4.174 1.33 8.476 5.49 9.609a7.81 7.81 0 0 0 9.59-5.505 7.82 7.82 0 0 0-5.49-9.609Z"/><path fill="#212123" d="M1323.33 117.239c3.49.948 5.55 4.56 4.6 8.051-.94 3.491-4.55 5.56-8.03 4.612-3.49-.948-5.55-4.56-4.6-8.051.94-3.49 4.55-5.56 8.03-4.612Zm-4.1 15.114c4.84 1.315 9.84-1.555 11.15-6.397 1.31-4.843-1.55-9.852-6.38-11.168-4.84-1.314-9.84 1.555-11.15 6.398-1.31 4.842 1.55 9.852 6.38 11.167Z"/><path fill="#fff" d="M1322.43 119.081a7.81 7.81 0 0 0-9.59 5.505c-1.13 4.174 1.33 8.476 5.49 9.609a7.81 7.81 0 0 0 9.59-5.505c1.13-4.173-1.33-8.475-5.49-9.609Z"/><path fill="#212123" d="M1322.1 120.307c3.48.948 5.55 4.56 4.6 8.051-.95 3.491-4.55 5.56-8.04 4.612-3.48-.948-5.54-4.56-4.6-8.051.95-3.491 4.55-5.56 8.04-4.612Zm-4.1 15.114c4.83 1.315 9.83-1.555 11.15-6.398 1.31-4.842-1.56-9.852-6.39-11.167-4.83-1.315-9.83 1.556-11.14 6.398-1.32 4.842 1.55 9.852 6.38 11.167Z"/><path fill="#FAB0ED" d="M1323.66 116.015a7.81 7.81 0 0 0-9.59 5.505c-1.13 4.174 1.33 8.476 5.49 9.609a7.81 7.81 0 0 0 9.59-5.505 7.82 7.82 0 0 0-5.49-9.609Z"/><path fill="#C348BD" d="M1320.25 128.694c2.5.68 5.07-.798 5.75-3.304.05-.158.08-.314.1-.471a4.653 4.653 0 0 1-4.04.778 4.704 4.704 0 0 1-3.4-5.298 4.624 4.624 0 0 0-1.71 2.528 4.701 4.701 0 0 0 3.3 5.767Z"/><path fill="#212123" d="M1323.33 117.239c3.49.948 5.55 4.559 4.6 8.051-.94 3.491-4.55 5.56-8.03 4.612-3.49-.948-5.55-4.56-4.6-8.051.94-3.491 4.55-5.56 8.03-4.612Zm-4.1 15.114c4.84 1.315 9.84-1.555 11.15-6.397 1.31-4.843-1.55-9.853-6.38-11.168-4.84-1.315-9.84 1.555-11.15 6.398-1.31 4.842 1.55 9.852 6.38 11.167Z"/><path fill="#fff" d="M1353.9 133.745a7.81 7.81 0 0 0-9.59 5.505c-1.13 4.173 1.33 8.475 5.49 9.609a7.81 7.81 0 0 0 9.59-5.505c1.13-4.174-1.33-8.476-5.49-9.609Z"/><path fill="#212123" d="M1353.58 134.971c3.48.948 5.55 4.56 4.6 8.051-.94 3.492-4.55 5.56-8.03 4.612-3.49-.948-5.55-4.559-4.61-8.051.95-3.491 4.55-5.56 8.04-4.612Zm-4.1 15.114c4.83 1.315 9.84-1.555 11.15-6.397 1.31-4.843-1.55-9.853-6.39-11.168-4.83-1.315-9.83 1.556-11.14 6.398-1.32 4.843 1.55 9.852 6.38 11.167Z"/><path fill="#FAB0ED" d="M1355.9 131.228c-4.16-1.133-8.46 1.331-9.59 5.505-1.13 4.174 1.33 8.475 5.5 9.609 4.16 1.133 8.45-1.331 9.59-5.505 1.13-4.174-1.33-8.475-5.5-9.609Z"/><path fill="#212123" d="M1355.56 132.455c3.48.948 5.55 4.56 4.6 8.05-.95 3.492-4.55 5.56-8.03 4.612-3.49-.948-5.55-4.559-4.61-8.05.95-3.491 4.55-5.56 8.04-4.612Zm-4.1 15.113c4.83 1.315 9.83-1.554 11.15-6.397 1.31-4.842-1.55-9.852-6.39-11.167-4.83-1.315-9.83 1.555-11.14 6.397-1.32 4.843 1.55 9.852 6.38 11.167Z"/><path fill="#fff" d="M1383.64 150.869a7.81 7.81 0 0 0-9.59 5.505 7.82 7.82 0 0 0 5.49 9.609 7.81 7.81 0 0 0 9.59-5.505c1.13-4.174-1.33-8.476-5.49-9.609Z"/><path fill="#212123" d="M1383.32 152.098c3.48.948 5.55 4.56 4.6 8.05-.94 3.491-4.55 5.561-8.03 4.612-3.49-.948-5.55-4.559-4.61-8.05.95-3.491 4.56-5.56 8.04-4.612Zm-4.1 15.113c4.84 1.315 9.84-1.555 11.15-6.397 1.31-4.842-1.55-9.852-6.39-11.167-4.83-1.315-9.83 1.555-11.14 6.397-1.31 4.842 1.55 9.852 6.38 11.167Z"/><path fill="#FAB0ED" d="M1386.74 148.687c-4.16-1.134-8.46 1.331-9.59 5.505-1.13 4.173 1.33 8.475 5.5 9.608 4.16 1.134 8.45-1.33 9.59-5.504 1.13-4.174-1.33-8.476-5.5-9.609Z"/><path fill="#212123" d="M1386.4 149.913c3.48.948 5.55 4.56 4.6 8.05-.95 3.491-4.55 5.56-8.04 4.612-3.48-.948-5.55-4.56-4.6-8.05.95-3.491 4.55-5.56 8.04-4.612Zm-4.1 15.113c4.83 1.315 9.83-1.554 11.15-6.397 1.31-4.842-1.56-9.852-6.39-11.167-4.83-1.315-9.83 1.555-11.15 6.397-1.31 4.843 1.56 9.852 6.39 11.167Z"/><path fill="#fff" d="M1334.95 59.438a43.415 43.415 0 0 0 1.87 22.025 41.58 41.58 0 0 0 1.82 4.376 44.82 44.82 0 0 0 4.91 7.992 44.975 44.975 0 0 0 9.3 8.996c.7.495 1.4.97 2.11 1.425 13.1 8.308 30.11 9.59 44.64 1.884 21.4-11.348 29.27-37.896 17.6-59.293a44.793 44.793 0 0 0-8.3-10.847c-.37-.365-.76-.72-1.15-1.067a43.176 43.176 0 0 0-3.25-2.64 44.458 44.458 0 0 0-8.25-4.817 44.89 44.89 0 0 0-16.52-3.905 43.782 43.782 0 0 0-22.43 5.076c-12.31 6.527-20.14 18.083-22.35 30.795Z"/><path fill="#212123" d="M1389.27 26.32c2.2.6 4.36 1.371 6.44 2.307a43.595 43.595 0 0 1 8.03 4.681c1.08.798 2.14 1.661 3.15 2.565.41.36.77.696 1.11 1.03a43.55 43.55 0 0 1 8.07 10.546c5.5 10.089 6.73 21.652 3.46 32.559-3.24 10.816-10.54 19.695-20.54 25.002-13.6 7.214-30.22 6.511-43.37-1.835a43.39 43.39 0 0 1-7.27-5.801 43.63 43.63 0 0 1-7.55-10.05 44.326 44.326 0 0 1-2.81-6.29 42.268 42.268 0 0 1-1.81-21.381l-1.25-.218 1.25.218c2.24-12.873 10.15-23.768 21.7-29.891a42.659 42.659 0 0 1 21.78-4.93 43.253 43.253 0 0 1 9.61 1.488Zm-22.39 84.568c11.06 3.008 22.99 1.831 33.29-3.634 10.61-5.626 18.35-15.043 21.79-26.516 3.47-11.562 2.16-23.817-3.67-34.509a45.913 45.913 0 0 0-8.53-11.155 25.91 25.91 0 0 0-1.19-1.101 44.723 44.723 0 0 0-3.33-2.71 46.045 46.045 0 0 0-8.49-4.954 46.29 46.29 0 0 0-12.33-3.585c-1.57-.226-3.14-.37-4.66-.43a45.206 45.206 0 0 0-23.07 5.223c-12.24 6.493-20.63 18.047-23.01 31.699a44.943 44.943 0 0 0 1.92 22.668 46.147 46.147 0 0 0 1.88 4.502c.31.663.67 1.368 1.09 2.15 1.16 2.13 2.5 4.168 3.96 6.069a46.96 46.96 0 0 0 4.04 4.573 45.822 45.822 0 0 0 7.7 6.141 46.044 46.044 0 0 0 12.61 5.569Z"/><path fill="#212123" d="M1389.42 25.913c2.22.605 4.4 1.386 6.5 2.329a44.06 44.06 0 0 1 11.29 7.317c.41.364.78.704 1.12 1.043a43.658 43.658 0 0 1 8.14 10.647c5.56 10.191 6.81 21.872 3.51 32.889-3.28 10.928-10.65 19.898-20.76 25.258-13.73 7.286-30.51 6.576-43.79-1.851-.7-.446-1.4-.918-2.08-1.399a44.086 44.086 0 0 1-5.27-4.46 44.586 44.586 0 0 1-3.85-4.364 43.354 43.354 0 0 1-3.77-5.785 38.44 38.44 0 0 1-1.05-2.056 42.781 42.781 0 0 1-3.62-25.894l-.83-.145.83.144c2.26-13.004 10.25-24.01 21.92-30.197a43.107 43.107 0 0 1 22-4.979 43.44 43.44 0 0 1 7.36.933c.79.168 1.57.358 2.35.57Zm-22.39 84.568c10.95 2.98 22.77 1.815 32.97-3.599 10.51-5.572 18.17-14.899 21.58-26.26 3.44-11.451 2.14-23.59-3.63-34.18a45.484 45.484 0 0 0-8.45-11.05c-.36-.353-.75-.711-1.18-1.09a45.798 45.798 0 0 0-3.3-2.687 45.799 45.799 0 0 0-8.41-4.906 46.103 46.103 0 0 0-12.22-3.553 45.155 45.155 0 0 0-4.61-.425 44.743 44.743 0 0 0-22.85 5.173c-12.13 6.43-20.44 17.872-22.8 31.393a44.544 44.544 0 0 0 1.91 22.45 45.228 45.228 0 0 0 2.94 6.592 45.839 45.839 0 0 0 3.92 6.01 46.156 46.156 0 0 0 4 4.531 45.108 45.108 0 0 0 7.63 6.085 45.654 45.654 0 0 0 12.5 5.516Z"/><path fill="#212123" d="M1334.94 59.437v-.001Zm54.4-33.294a43.94 43.94 0 0 1 6.46 2.317 43.797 43.797 0 0 1 8.06 4.7 44.43 44.43 0 0 1 4.29 3.611 43.528 43.528 0 0 1 8.09 10.59c5.53 10.134 6.77 21.748 3.48 32.702-3.25 10.865-10.58 19.783-20.63 25.112-13.66 7.246-30.35 6.54-43.55-1.841a43.428 43.428 0 0 1-11.13-10.166 43.066 43.066 0 0 1-3.76-5.754c-.4-.742-.74-1.413-1.04-2.044a44.632 44.632 0 0 1-1.78-4.274 42.52 42.52 0 0 1-1.82-21.474c2.25-12.929 10.2-23.872 21.8-30.022a42.82 42.82 0 0 1 21.87-4.951 43.189 43.189 0 0 1 7.32.927c.78.168 1.56.357 2.34.567Zm-22.4 84.568c11.02 2.996 22.9 1.824 33.16-3.619 10.57-5.603 18.27-14.98 21.7-26.405 3.45-11.514 2.15-23.72-3.66-34.367a45.602 45.602 0 0 0-8.49-11.11 32.05 32.05 0 0 0-1.19-1.096 44.334 44.334 0 0 0-3.32-2.7 45.792 45.792 0 0 0-8.45-4.934 46.18 46.18 0 0 0-12.28-3.57 45.945 45.945 0 0 0-4.64-.428 45.026 45.026 0 0 0-22.98 5.201c-12.19 6.466-20.54 17.972-22.91 31.567a44.798 44.798 0 0 0 1.91 22.574 45.839 45.839 0 0 0 1.87 4.484c.31.66.67 1.362 1.09 2.141a46.177 46.177 0 0 0 3.94 6.044 46.599 46.599 0 0 0 4.02 4.556 46.41 46.41 0 0 0 5.51 4.657 45.992 45.992 0 0 0 14.72 7.005Z"/><path fill="#6C54FF" d="M1334.45 70.654c9.12 30.113 44.73 42.12 65.49 19.171 14.13-15.612 9.48-41.596-6.64-54.299-11.74-9.244-27.2-13.218-46.41.785 0 0-7.52 7.517-9.64 14.811-2.13 7.295-2.95 14.761-2.95 14.761l.15 4.771Z"/><path fill="#212123" d="M1380.06 24.772c5.15 1.403 10.27 4.086 15.22 7.984 9.21 7.263 15.33 18.866 16.35 31.037.92 10.883-2.29 20.974-9.02 28.415-7.38 8.15-16.77 12.672-27.17 13.08-11.08.433-22.41-4.01-31.1-12.193a44.116 44.116 0 0 1-3.7-5.684c-.4-.742-.74-1.413-1.04-2.044a44.632 44.632 0 0 1-1.78-4.274 42.52 42.52 0 0 1-1.82-21.474l-1.07-.186 1.07.186c2.25-12.93 10.19-23.872 21.79-30.022a42.85 42.85 0 0 1 21.77-4.956l.5.13Zm-17.22 81.203c4.17 1.133 8.44 1.646 12.69 1.479 10.99-.43 20.91-5.198 28.68-13.79 7.14-7.89 10.54-18.564 9.58-30.052-1.07-12.762-7.49-24.933-17.18-32.56-5.38-4.24-10.98-7.11-16.63-8.541l-.11-.028-.11-.005a45.025 45.025 0 0 0-22.98 5.202c-12.19 6.466-20.55 17.972-22.91 31.567a44.577 44.577 0 0 0 1.91 22.573 45.778 45.778 0 0 0 1.86 4.484c.32.661.68 1.363 1.1 2.142a45.174 45.174 0 0 0 3.94 6.044l.11.125c5.81 5.486 12.76 9.375 20.05 11.36Z"/><path fill="#212123" d="M1334.44 70.653v-.001.001Zm44.76-41.334c4.58 1.247 9.07 3.593 13.44 7.038 8.18 6.447 13.61 16.744 14.52 27.548.81 9.655-2.03 18.608-8.01 25.209-8.71 9.626-20.81 13.547-33.21 10.758-14.21-3.198-25.87-14.453-30.44-29.393l-.15-4.553c.09-.786.94-7.77 2.91-14.509 1.93-6.622 8.64-13.606 9.32-14.301 10.93-7.947 21.51-10.547 31.62-7.797Zm-15.45 72.19c.57.155 1.15.298 1.73.428 13.16 2.96 26-1.196 35.24-11.402 6.37-7.04 9.4-16.561 8.54-26.808-.95-11.377-6.68-22.23-15.32-29.033-14.87-11.72-30.91-11.462-47.67.761l-.13.107c-.31.314-7.74 7.793-9.91 15.263-2.13 7.299-2.95 14.632-2.99 14.94v.15l.15 4.912.04.134c4.59 15.127 16.11 26.682 30.32 30.548Z"/><path fill="#fff" d="M1416.51 100.548c-4.96 7.049-13.35 9.998-18.73 6.585-5.38-3.414-5.72-11.896-.76-18.945.04-.046.07-.092.1-.135 4.97-6.953 13.29-9.841 18.63-6.451 4.16 2.637 5.3 8.299 3.33 13.988a20.392 20.392 0 0 1-2.57 4.958Z"/><path fill="#212123" d="M1412.97 81.748c.74.204 1.46.512 2.12.93 1.8 1.143 3 2.991 3.46 5.343.72 3.636-.42 8.047-3.06 11.798-3.95 5.604-10.17 8.458-14.9 7.174a7.742 7.742 0 0 1-2.12-.931c-1.8-1.143-3-2.99-3.46-5.343-.72-3.635.42-8.046 3.06-11.797 3.95-5.605 10.17-8.459 14.9-7.174Zm-13.1 27.669c5.75 1.564 13.12-1.647 17.69-8.134 3.08-4.374 4.34-9.387 3.48-13.757-.61-3.05-2.2-5.47-4.6-6.993-5.93-3.764-15.1-.658-20.44 6.925-3.08 4.373-4.34 9.387-3.48 13.756.61 3.051 2.2 5.47 4.6 6.994.86.543 1.78.944 2.75 1.209Z"/><path fill="#fff" d="M1413.56 106.139c-5.4 4.006-11.79 3.415-14.26-1.319-2.47-4.734-.09-11.82 5.31-15.825 5.4-4.006 11.79-3.416 14.26 1.319 2.47 4.733.09 11.819-5.31 15.825Z"/><path fill="#212123" d="M1413.48 106.046c-2.98 2.208-6.35 3.088-9.27 2.417-2.15-.499-3.81-1.773-4.82-3.697-2.44-4.68-.08-11.714 5.28-15.683 2.97-2.207 6.35-3.087 9.27-2.416 2.14.492 3.81 1.772 4.82 3.697 2.44 4.68.07 11.714-5.28 15.682Zm-9.64 2.557c.1.029.21.056.32.081 2.98.686 6.43-.209 9.46-2.456 5.43-4.032 7.83-11.195 5.34-15.97-1.04-1.984-2.76-3.303-4.97-3.813-2.98-.686-6.43.21-9.46 2.456-5.44 4.032-7.83 11.195-5.34 15.97.99 1.887 2.59 3.172 4.65 3.732Z"/><path fill="#A79BAD" d="M1398.7 103.734c-.78-2.28-.62-4.95.33-7.523-.09.187-.16.376-.24.566-.98 2.584-.94 5.027-.09 6.957Z"/><path fill="#212123" d="M1399.76 105.421a7.264 7.264 0 0 1-.38-.655c-1.69-3.231-1.08-7.584 1.21-11.276a14.41 14.41 0 0 0-1.58 2.72c-.94 2.573-1.1 5.244-.32 7.523.27.62.63 1.187 1.07 1.688Z"/><path fill="#212123" d="M1414.67 87.454c.47.128.91.319 1.32.574 1.2.745 2 1.985 2.32 3.585.57 2.86-.42 6.445-2.65 9.59-3.62 5.098-9.6 7.583-13.06 5.425-1.19-.745-1.99-1.985-2.31-3.585-.58-2.859.41-6.444 2.65-9.59 3.19-4.493 8.21-6.956 11.73-6Zm-11.35 22.223c4.58 1.247 10.5-1.505 14.41-7.003 2.63-3.705 3.77-8.027 3.07-11.56-.47-2.305-1.66-4.118-3.47-5.242-4.71-2.939-11.94-.255-16.46 6.11-2.63 3.705-3.78 8.027-3.07 11.56.46 2.306 1.66 4.118 3.46 5.242.65.4 1.34.697 2.06.893Z"/><path fill="#fff" d="M1343.39 60.833s1.08-3.927 5.98-10.33c1.62-2.104 3.54-4.419 6.91-7.062a18.195 18.195 0 0 1 8.86-3.733c4.84-.646 9.76.02 14.23 1.235 9.68 2.634 17.23 7.846 17.23 7.846 1-.25-5.8-12.453-20.42-16.43-.64-.176-1.3-.335-1.98-.477-8.55-1.795-16.3 2.46-21.35 6.405a45.643 45.643 0 0 0-4.06 3.59l-.01.006c-.11.118-.21.237-.32.36-.46.53-.89 1.06-1.29 1.59-4.03 5.373-4.89 10.8-3.78 17Zm50.94 19.016c2.88.782 6.1-1.007 7.42-4.249 1.43-3.48.14-7.315-2.88-8.566a5.494 5.494 0 0 0-.63-.215c-2.88-.782-6.09 1.007-7.42 4.248-1.43 3.48-.13 7.315 2.88 8.567.21.086.42.157.63.215Zm-5.13 5.731a45.48 45.48 0 0 0 4.72-2.003c-.25-.699-.77-1.254-1.47-1.477l-.09-.027c-1.26-.343-2.62.519-3.07 1.967a3.017 3.017 0 0 0-.09 1.54Z" opacity=".7"/><path fill="#fff" d="M1390.84 87.49c1.26.343 2.62-.52 3.08-1.968.21-.676.18-1.364-.03-1.95a45.48 45.48 0 0 1-4.72 2.002c.18.887.75 1.623 1.58 1.888.03.01.06.02.09.028Z" opacity=".7"/><path fill="#212123" d="M1312.04 81.593c.05.017.12.029.18.036 14.13 1.685 20.28-8.792 20.54-9.24.35-.608.13-1.384-.47-1.732a1.27 1.27 0 0 0-1.73.47c-.22.387-5.62 9.461-18.04 7.98-.7-.082-1.33.415-1.41 1.111-.08.634.33 1.213.93 1.375Z"/><path fill="#FCBE51" d="M1361.42 198.084c2.3.626 4.45 1.127 6.41 1.485 11.39 2.072 23.44-.123 32.67-2.853a179.322 179.322 0 0 1-23.11-4.694 181.24 181.24 0 0 1-5.88-1.708c-15.99-4.929-31.22-12.011-46.23-19.39-13.12-6.44-26.21-13.191-37.6-22.347-8.67-6.97-16.37-15.474-21.49-25.286-.34-.11-.67-.22-1.01-.33 2.29 8.95 7.87 24.603 20.79 37.8 9.79 9.991 50.98 30.665 75.45 37.323Zm-96.78-77.974-.09-.187a.248.248 0 0 1-.04.009c.01.048.01.095.02.142.03.012.07.024.11.036Z"/><path fill="#E0D6FB" d="M1264.52 119.934c.01-.004.03-.006.04-.01-.01-.028-.03-.054-.04-.081 0 .002 0 .004-.01.005.01.029.01.057.01.086Z"/><path fill="#212123" d="M1264.52 119.849c0-.002.01-.004.01-.006-.01-.007-.01-.014-.01-.022v.028Zm1.66 3.44a73 73 0 0 1-1.55-3.182c-.04-.012-.07-.024-.11-.036.02.171.05.342.09.513.16.725.35 1.519.57 2.374.33.11.67.22 1 .331Z"/><path fill="#C348BD" d="M1352.27 143.798c1.18.321 2.48.216 3.65-.393a5.042 5.042 0 0 0 2.63-3.504 5.023 5.023 0 0 1-3.3.228 5.033 5.033 0 0 1-3.16-2.549 5.028 5.028 0 0 1-.47-3.317 5.065 5.065 0 0 0-2.51 6.984 5.055 5.055 0 0 0 3.16 2.551Zm30.82 17.518c.7.19 1.44.238 2.2.116a5.235 5.235 0 0 0 3.74-2.593 5.248 5.248 0 0 1-5.61-4.408 5.21 5.21 0 0 1 .62-3.426 5.25 5.25 0 0 0-4.75 6.066 5.235 5.235 0 0 0 3.8 4.245Z"/></g><defs><linearGradient id="paint0_linear_9174_235361" x1="1123.64" x2="1421.71" y1="535.356" y2="627.056" gradientUnits="userSpaceOnUse"><stop stop-color="#4A2C9C"/><stop offset="1" stop-color="#212123"/></linearGradient><linearGradient id="paint1_linear_9174_235361" x1="1094.16" x2="685.518" y1="716.226" y2="793.173" gradientUnits="userSpaceOnUse"><stop stop-color="#4A2C9C"/><stop offset="1" stop-color="#212123"/></linearGradient><linearGradient id="paint2_linear_9174_235361" x1="1111.88" x2="631.54" y1="437.531" y2="98.925" gradientUnits="userSpaceOnUse"><stop stop-color="#5D4AD4"/><stop offset=".593" stop-color="#212123"/></linearGradient><linearGradient id="paint3_linear_9174_235361" x1="1265.76" x2="1746.11" y1="437.541" y2="98.934" gradientUnits="userSpaceOnUse"><stop stop-color="#5D4AD4"/><stop offset=".593" stop-color="#212123"/></linearGradient><linearGradient id="paint4_linear_9174_235361" x1="-187.782" x2="907.583" y1="1045.19" y2="308.395" gradientUnits="userSpaceOnUse"><stop stop-color="#6C54FF"/><stop offset="1" stop-color="#6F58E9"/></linearGradient><filter id="filter0_d_9174_235361" width="1483.55" height="901.158" x="779.926" y="76.927" color-interpolation-filters="sRGB" filterUnits="userSpaceOnUse"><feFlood flood-opacity="0" result="BackgroundImageFix"/><feColorMatrix in="SourceAlpha" result="hardAlpha" values="0 0 0 0 0 0 0 0 0 0 0 0 0 0 0 0 0 0 127 0"/><feOffset dx="9.933" dy="6.112"/><feGaussianBlur stdDeviation="11.843"/><feComposite in2="hardAlpha" operator="out"/><feColorMatrix values="0 0 0 0 0.379167 0 0 0 0 0.254547 0 0 0 0 0.0126389 0 0 0 0.1 0"/><feBlend in2="BackgroundImageFix" result="effect1_dropShadow_9174_235361"/><feBlend in="SourceGraphic" in2="effect1_dropShadow_9174_235361" result="shape"/></filter><filter id="filter1_d_9174_235361" width="1660.94" height="1106.37" x="-653.57" y="64.102" color-interpolation-filters="sRGB" filterUnits="userSpaceOnUse"><feFlood flood-opacity="0" result="BackgroundImageFix"/><feColorMatrix in="SourceAlpha" result="hardAlpha" values="0 0 0 0 0 0 0 0 0 0 0 0 0 0 0 0 0 0 127 0"/><feOffset dx="9.933" dy="6.112"/><feGaussianBlur stdDeviation="11.843"/><feComposite in2="hardAlpha" operator="out"/><feColorMatrix values="0 0 0 0 0.379167 0 0 0 0 0.254547 0 0 0 0 0.0126389 0 0 0 0.1 0"/><feBlend in2="BackgroundImageFix" result="effect1_dropShadow_9174_235361"/><feBlend in="SourceGraphic" in2="effect1_dropShadow_9174_235361" result="shape"/></filter><clipPath id="clip0_9174_235361"><path fill="#fff" d="M-180 0h1800v1241.25H-180z"/></clipPath></defs></svg>